<svg xmlns="http://www.w3.org/2000/svg" xmlns:xlink="http://www.w3.org/1999/xlink" width="400" height="311" viewBox="0 0 400 311">
    <defs>
        <path id="b" d="M291.728 269.261H118.441c-8.528 0-15.441-6.913-15.441-15.44V74.44C103 65.912 109.913 59 118.44 59h173.288c8.527 0 15.44 6.913 15.44 15.44v179.38c0 8.528-6.913 15.441-15.44 15.441z"/>
        <filter id="a" width="144.1%" height="142.8%" x="-22%" y="-12.8%" filterUnits="objectBoundingBox">
            <feOffset dy="18" in="SourceAlpha" result="shadowOffsetOuter1"/>
            <feGaussianBlur in="shadowOffsetOuter1" result="shadowBlurOuter1" stdDeviation="12"/>
            <feColorMatrix in="shadowBlurOuter1" values="0 0 0 0 0.37254902 0 0 0 0 0.576470588 0 0 0 0 0.705882353 0 0 0 0.2 0"/>
        </filter>
    </defs>
    <g fill="none" fill-rule="evenodd">
        <path fill="#F8F8FF" d="M331.926 223.595c-6.48 77.416-45.68 28.1-171.146 45.137-61.547 8.358-126.711-24.993-112.912-88.576 12.283-56.598-12.065-53.313 31.867-102.15 41.757-46.42 270.812-76.896 252.19 145.589"/>
        <path fill="#EDEDFF" d="M371.658 211.379c-28.599 78.594-48.566 86.584-199.692 77.789-74.134-4.315-142.82-55.139-114.41-119.509 25.29-57.3 74.678-114.142 147.708-100.652C284.66 83.673 395.72 145.25 371.658 211.379"/>
        <path fill="#EDEDFF" d="M360.396 106.321c-3.84 10.49-11.804 15.679-21.773 15.679-9.97 0-19.583-8.709-15.768-17.3 3.395-7.647 10.025-15.232 19.83-13.432 10.659 1.957 20.942 6.228 17.711 15.053M97.737 275.92c-1.674 4.736-5.145 7.08-9.491 7.08s-8.536-3.933-6.873-7.813c1.48-3.453 4.37-6.879 8.643-6.066 4.647.884 9.129 2.813 7.72 6.798"/>
        <g>
            <path fill="#BCC5FA" d="M393.46 68.072S329.754 43.27 302.39 187.97c0 0 124.964-85.872 91.07-119.898"/>
            <path fill="#9CADEF" d="M302.584 186.596l-.798-.395c25.739-51.995 90.705-117.783 91.359-118.442l.63.626c-.653.658-65.517 66.345-91.191 118.211"/>
            <path fill="#9CADEF" d="M317.111 160.349l.067-.473c.043-.312 4.468-31.28 10.925-44.326l.797.395c-5.949 12.018-10.176 39.537-10.771 43.562 3.053.027 19.939-.613 33.263-17.147l.693.557c-14.932 18.529-34.303 17.475-34.497 17.463l-.477-.031z"/>
            <path fill="#9CADEF" d="M332.884 138.34l-.948-.672 1.053-.12c.385-.787 1.2-4.705 2.064-8.84 2.642-12.668 7.562-36.246 14.564-44.935l.693.557c-6.87 8.523-11.76 31.964-14.387 44.559-1.057 5.066-1.572 7.416-1.94 8.527 4.073-.594 21.317-3.564 35.947-12.958l.482.748c-15.949 10.24-34.956 12.923-37.036 13.19a.018.018 0 0 1-.008.002h-.009c-.101.013-.158.02-.167.02l-.005-.04-.303-.039z"/>
            <path fill="#9CADEF" d="M357.831 107.044l.065-.464c.178-1.263 4.442-31.002 12.974-36.48l.48.749c-7.625 4.895-11.911 31.472-12.502 35.376 3.015.14 19.758.398 31.736-9.952l.581.671c-13.431 11.607-32.673 10.156-32.866 10.14l-.468-.04z"/>
            <path fill="#BCC5FA" d="M399.292 158.588s-26.024-41.537-92.27 48.847c0 0 100.463-14.792 92.27-48.847"/>
            <path fill="#9CADEF" d="M307.544 206.627l-.385-.48c16.393-13.17 40.543-25.478 57.916-33.485 18.817-8.672 33.959-14.307 34.11-14.363l.214.579c-.15.055-15.274 5.681-34.071 14.345-17.34 7.993-41.442 20.275-57.784 33.404"/>
            <path fill="#9CADEF" d="M326.62 195.38c-1.233-.458-1.93-.833-1.988-.864l-.29-.16.18-.278c.118-.182 11.935-18.371 19.806-24.694l.385.48c-7.25 5.825-17.936 21.903-19.486 24.26 1.914.89 12.719 5.432 25.928-1.08l.272.552c-7.73 3.811-14.595 3.862-18.995 3.234a28.411 28.411 0 0 1-5.812-1.45"/>
            <path fill="#9CADEF" d="M340.855 185.252l.008-.027-.179-.112-.4-.7.698.233c.471-.383 2.13-2.61 3.882-4.963 5.734-7.701 15.33-20.59 22.268-24.011l.272.552c-6.804 3.357-16.72 16.672-22.046 23.828-2.145 2.88-3.156 4.21-3.713 4.801 2.737.815 14.451 3.98 26.394 2.34l.085.61c-13.02 1.788-25.758-2.072-27.145-2.51l-.007-.001-.004-.004a6.772 6.772 0 0 1-.113-.036"/>
            <path fill="#9CADEF" d="M369.946 174.713c-2.546-.944-4.113-1.82-4.156-1.845l-.283-.16.178-.275c.48-.742 11.84-18.204 18.805-19.16l.085.61c-6.223.854-16.677 16.32-18.189 18.607 1.854.965 12.315 6.016 22.87 2.998l.169.593c-7.538 2.153-15.014.288-19.479-1.368"/>
            <path fill="#BCC5FA" d="M2.878 67.255c2.367-5.475 13.075-6.168 17.473-2.139 4.399 4.03 6.274 10.049 9.484 15.077 3.21 5.028 9.274 9.421 14.814 7.21 3.6-1.438 5.657-5.152 8.496-7.791 2.838-2.64 8.076-3.864 10.144-.585.69 1.096.828 2.452.772 3.746-.24 5.572-3.634 10.495-4.915 15.924-1.281 5.428 1.113 12.748 6.684 13.02 3.634.176 6.631-2.815 8.56-5.899 1.93-3.084 3.427-6.613 6.348-8.782 2.92-2.169 7.96-2.042 9.387 1.305.477 1.122.46 2.39.327 3.603-1.186 10.75-10.684 19.505-10.764 30.32-.01 1.221.119 2.485.723 3.545 1.794 3.149 6.746 2.728 9.5.372 2.752-2.356 4.137-5.895 6.237-8.849 2.1-2.953 5.7-5.518 9.142-4.385 3.61 1.189 4.902 5.927 3.795 9.563-1.107 3.636-3.865 6.48-6.27 9.424-2.487 3.045-4.74 6.512-5.152 10.422-.412 3.91 1.537 8.3 5.258 9.572 4.552 1.558 9.214-1.916 12.445-5.48 1.812-1.999 3.947-4.3 6.635-4.078 2.601.215 4.432 2.894 4.647 5.496.217 2.601-.762 5.134-1.666 7.583a161.75 161.75 0 0 0-9.428 42.592c-.339 4.098-1.224 9.158-5.159 10.352-1.698.515-3.523.1-5.246-.326a527.347 527.347 0 0 1-45.9-13.577c-2.14-.74-4.435-1.618-5.637-3.536-1.967-3.14.127-7.454 3.214-9.503 3.086-2.05 6.889-2.62 10.37-3.891 2.481-.906 5.23-3 4.586-5.562-.178-.705-.604-1.323-1.079-1.874-4.119-4.784-11.495-5.004-17.633-3.53-6.139 1.473-12.088 4.26-18.4 4.163-6.312-.096-13.28-4.58-13.016-10.887.233-5.567 6-9.482 11.535-10.116 5.535-.635 11.043 1.022 16.574 1.702 2.78.342 6.66-.534 6.546-3.333-.043-1.07-.744-1.997-1.509-2.746-3.803-3.72-9.491-4.656-14.804-4.93-5.314-.272-10.833-.107-15.699-2.26-4.866-2.151-8.834-7.557-7.267-12.642 1.58-5.125 7.92-7.334 13.228-6.564 3.253.472 6.994 1.634 9.515-.474 3.195-2.672 1.006-8.375-2.8-10.066-3.805-1.692-8.186-.787-12.314-.231-4.127.555-8.855.53-11.79-2.425-2.722-2.74-2.864-7.472-.7-10.671 2.165-3.2 6.236-4.828 10.088-4.539-.765-3.587-5.025-4.917-8.112-6.897C9.652 90.796 1.295 81.625.376 76.368c-.92-5.259-.18-4.518 2.502-9.113"/>
            <path fill="#9CADEF" d="M110.386 219.045l-1.276-.358c2.328-8.296-27.798-56.595-54.093-90.317C26.537 91.846 4.18 68.404 3.958 68.171l.958-.916c.223.233 22.625 23.724 51.146 60.3 23.42 30.034 57.031 81.843 54.324 91.49"/>
            <path fill="#9CADEF" d="M41.752 111.685c-2.416-.252-4.825-.73-7.155-1.194-2.534-.504-5.153-1.025-7.75-1.244-3.335-.28-9.543-.176-13.654 3.677l-.906-.967c3.322-3.116 8.533-4.548 14.672-4.03 2.67.224 5.327.752 7.896 1.264 2.3.458 4.68.93 7.034 1.176l-.137 1.318zM45.04 113.67l-1.32-.13c.454-4.585 3.753-10.38 7.245-16.516 3.665-6.438 7.453-13.096 7.435-17.862l1.326-.004c.019 5.118-3.859 11.932-7.609 18.521-3.27 5.746-6.651 11.687-7.078 15.992M69.91 146.842l-1.32-.11c.493-5.913 2.93-24.119 7.48-30.014l1.05.81c-4.033 5.223-6.599 22.005-7.21 29.314M66.843 144.555c-13.632-3.723-19.181-3.18-25.056-2.606-1.591.157-3.237.317-5.046.386l-.051-1.324c1.77-.068 3.396-.227 4.968-.38 5.736-.561 11.667-1.142 25.534 2.645l-.349 1.279zM83.942 167.185l-1.325.042c-.175-5.538.242-9.394 2.94-13.904 1.15-1.922 2.72-3.53 4.239-5.084.424-.435.85-.87 1.264-1.31a48.26 48.26 0 0 0 11.151-19.53l1.273.37a49.586 49.586 0 0 1-11.459 20.068c-.42.447-.85.887-1.281 1.328-1.465 1.5-2.98 3.05-4.049 4.838-2.546 4.254-2.924 7.777-2.753 13.182M87.057 174.828c-3.64-.762-6.433-2.06-9.134-3.316-2.287-1.064-4.652-2.163-7.587-2.975-8.495-2.352-17.591-1.014-26.155.782l-1.29.272c-6.378 1.35-12.975 2.748-19.323 1.049l.342-1.281c6.042 1.618 12.48.254 18.707-1.065l1.292-.273c8.728-1.83 18.013-3.189 26.78-.762 3.04.842 5.457 1.965 7.793 3.051 2.754 1.28 5.356 2.49 8.846 3.22l-.271 1.298zM101.283 196.01l-.597-.386c-.03-.068-.069-.151.063-.542l-.055-.027.055.027c.256-.76 1.156-2.685 4-7.918 3.136-5.772 5.837-10.02 8.03-12.623 5.711-6.788 10.449-13.014 10.57-20.483l1.325.022c-.138 8.547-6.347 15.926-10.882 21.314-5.143 6.111-11.782 19.977-11.901 20.23l-.002.003h-.002l-.604.383zM105.324 204.818c-1.43-.646-2.868-1.339-4.39-2.072-6.46-3.117-13.14-6.338-19.66-6.122-2.843.095-5.714.658-8.491 1.203-.988.194-1.975.387-2.965.562a79.14 79.14 0 0 1-14.36 1.198l.01-1.325c4.72.039 9.47-.357 14.119-1.178.982-.173 1.961-.366 2.942-.558 2.827-.555 5.751-1.128 8.702-1.226 6.846-.228 13.983 3.214 20.28 6.252 1.513.73 2.944 1.42 4.359 2.059l-.546 1.207z"/>
            <path fill="#BCC5FA" d="M309.533.758s11.919 2.952 2.722 26.812c-9.196 23.86-19.167 27.855-19.167 27.855s-6.712-14.163.964-42.534C298.615-3.974 309.533.758 309.533.758M332.732 33.574s7.242 7.313-9.75 20.378c-16.992 13.064-25.87 11.573-25.87 11.573s1.375-13.065 19.246-30.02c10.624-10.081 16.374-1.931 16.374-1.931M337.012 63.233s5.023 8.983-14.843 17.03c-19.866 8.046-28.023 4.236-28.023 4.236s4.818-12.222 26.572-23.784c12.932-6.873 16.294 2.518 16.294 2.518M266.314 20.78s-9.44 4.1 1.483 22.542c10.923 18.441 19.72 20.355 19.72 20.355s3.576-12.641-6.718-35.022c-6.12-13.306-14.485-7.875-14.485-7.875M251.323 46.727s-8 6.475 7.455 21.325 24.444 14.343 24.444 14.343.067-13.138-15.836-31.952c-9.454-11.186-16.063-3.716-16.063-3.716"/>
            <path fill="#899FEF" d="M281.608 110.581c-.11.02-.279-.098-.17-.245l.367.03-.197.215zM281.457 109.813c.122-.062.31-.112.432.015-.2.028-.145.08-.376.1-.056.074-.013.166.053.179-.055.01-.022.144-.143.142-.077-.163-.022-.3.145-.395-.022-.046-.077-.035-.11-.041M284.046 102.07l.006.119a.23.23 0 0 1-.006-.12M285.415 97.196c-.03.076-.072.1-.103.096.042-.067.079-.122.103-.096M285.42 96.313l-.004.11c-.02-.047-.027-.092.004-.11"/>
            <path fill="#899FEF" d="M284.053 102.232l-.019-.306c.114.014.037.165.02.306M282.348 108.937a.389.389 0 0 1-.148.108 1.54 1.54 0 0 0 .094-.12l.054.012M283.327 104.145l-.029.082a.895.895 0 0 1-.156.023l.185-.105zM282.64 105.765c.017-.082.304-.008.436.007-.13.002-.205.039-.252.099a.658.658 0 0 1-.183-.106M281.936 108.357l-.075.08c.022-.02.049-.057.075-.08M283.637 103.012a.286.286 0 0 1-.09-.064.202.202 0 0 1 .09.064M293.777 56.218c-.021 0-.033-.005-.052-.006.032-.018.054-.022.052.006M293.397 54.153l-.023.056c-.056.001-.112.001-.166-.005l.189-.05zM285.645 94.742c0 .007 0 .01.002.015-.055.078-.037.03-.002-.015M288.784 80.672c.155.392.349-.497.5.074-.083-.069-.43.385-.5-.074M282.271 108.954a1.09 1.09 0 0 0 .063-.136.325.325 0 0 1-.063.136"/>
            <path fill="#899FEF" d="M289.08 80.642h.002l.017.058-.019-.058M286.56 91.23a.36.36 0 0 1 .108.105c-.029-.01-.06-.035-.108-.106M286.127 93.989l-.005-.148a.388.388 0 0 1 .005.148M287.072 90.013c-.005-.08-.038-.115.024-.21a.16.16 0 0 1 .028.04c-.048.028-.078.074-.052.17M287.38 88.47c.018.022.03.047.046.07l-.037.093-.01-.162zM293.25 60.778a.886.886 0 0 0-.243-.178c.201.076.335-.37.244.178M282.198 108.918c.076.012.12.002.155-.036a1.205 1.205 0 0 1-.057.09c-.044-.01-.083-.023-.098-.054M288.147 90.345l.067-.495a2.403 2.403 0 0 1-.067.495M291.583 71.118l.052-.107c0 .045-.015.083-.052.107M288.42 89.366a.708.708 0 0 1-.14-.317c.027-.015.05-.034.087-.04l.053.357zM293.005 60.547l.003.001h-.003z"/>
            <path fill="#899FEF" d="M291.607 63.525l-.019.006a1.186 1.186 0 0 0-.033.117c-.026-.013-.05-.04-.021-.106a.208.208 0 0 1 .073-.017m.67.908c.004-.044.056-.053.1-.031-.01.07-.018.135-.02.188-.031-.07-.044-.176-.08-.157m.17-.38l-.024.106h-.003l.026-.105m.916-4.92c.1-.208-.025-.075-.118-.287.162-.094-.025-.223.218-.216-.15-.091-.093-.064-.19-.215.122.077.162-.242.316-.213-.17-.079-.247.202-.41 0 .134-.106.207-.327.401-.322-.032-.099-.097-.15-.098-.298.009.024-.032.048-.052.06.16-.242.079-.64.33-.757-.284.018.032-.554-.25-.388a.62.62 0 0 1 .216-.294c-.217-.014-.022-.274-.136-.407.129-.046.11-.245.195-.354-.032.05-.073.073-.13.047.105-.121.016-.099-.074-.223.088-.172.162.052.276-.045-.032-.16-.135-.04-.221-.077l.245-.207a.192.192 0 0 0-.11-.113c.072-.072.172-.133.08-.258l-.029.198-.102-.088.166-.22c-.121-.358-.367-.277-.598-.277l-.056.133c-.078-.013-.111-.112-.109-.173-.045-.062-.272.192-.319.339-.031.405.258.114.282.397l-.175.341.077.014c.046.063-.044.086-.064.098.118-.01.003.295.005.443l-.094-.064c-.285.376.175.668.011.973l-.198.204.142.065c-.104.12-.223.13-.197.352.165.792-.256 1.567-.193 2.357-.03-.014-.036-.038-.053-.088.283.723-.517 1.005-.311 1.65l.06-.034c-.07.305.062-.035.113.201-.186.019-.193.374-.283.543.04-.022.045-.084.078-.132.036.039.141.067.096.151-.285.162-.318.59-.439.894.114.054.18.34.352.507a2.799 2.799 0 0 1-.242.112c.06.124-.01.201-.09.272l.044-.254-.013.005c.01-.008.014-.026.02-.041.015-.068.027-.102.035-.085-.097-.142-.093-.004-.23-.032-.009.104-.086.31.015.348-.007.061.002.104.014.171a.169.169 0 0 0-.039.124l.017-.019c.019.01.03.021.04.033.03.209-.216.462-.334.614.197-.14.19.07.315.088-.012.018.01-.189.043-.444.01.02.031.038.076.049.102.24-.172.36-.125.694.017-.019.052-.056.096-.034.02.118-.096.209-.174.224.119.046.173.302.1.415-.116.09-.16.069-.178.262l.1-.071c.038.236-.156.166-.112.363-.024-.08.068-.073.078-.015-.083.23-.131.227-.33.37l.14-.01c-.11.188-.333.541-.149.573-.274-.105-.213.415-.235.59.018-.059.08-.06.11-.062-.243.338-.118.74-.178 1.11l.198.09c-.038.195-.454.188-.478.401l.11-.061a3.43 3.43 0 0 0-.11.835l.14.016c-.082.098-.102.235-.184.334.296.302-.33.958-.03 1.472l-.262-.013c-.023.175-.111.389.069.502l.002-.04c.2.015-.024.175.002.29-.035.08-.176.14-.204.063.056.483-.19 1.146-.008 1.472-.162.448-.425.762-.483 1.265h.032c.006.174.019.523.233.559-.113.35-.448.528-.428.972l.099-.078c.023.116-.11.272-.143.31-.002.04.045.02.076.02.056.115-.07.155-.106.233l.078-.02c.088.367-.296.854-.342 1.298.037-.077.11-.02.139.02-.272.136-.305.639-.393.812l.114-.096c-.222.329.194.355-.029.681l-.1-.229c.015.152-.054.266-.153.212.048.183.178.055.154.312.065.024.08-.174.15-.075l.112.384c.017.014.014.06-.027.172-.291-.086-.071.288-.327.057-.116.492 0 .95-.218 1.35.256.23-.153.847.226.876a.785.785 0 0 1-.337.541c-.02-.054.039-.106.067-.15-.107.044-.18.33-.202.451.115-.141.239-.383.405-.479-.08.212-.279.49-.349.602l.18.094c-.177.156.124.185-.101.332l-.05-.046c-.054.341-.245.307-.332.616l.078.002c.008.114-.204.238-.053.378l.05-.204c.129.048.155.217.208.302-.08.21-.234.031-.275.137.116.071.065.025.204-.025-.095.233-.216.55-.412.688.017.015.048.009.048.009-.03.257-.302.432-.228.608l.03-.045c.14.24-.282.486.021.594.038.108.035-.22.156-.034.034.321-.307.142-.275.425-.002-.039.014-.023.046-.03-.05.19-.135.437-.213.64.2.314-.236.777-.003 1.14-.085-.118-.139.047-.186.037 0 0 .03-.006.047.01-.015.11-.119.1-.17.132.07.108-.165.276-.119.346-.066-.014-.068.077-.09.173.119-.176.156-.03.28-.093-.034.295-.366.264-.383.575l.087.194c-.198-.01-.184.285-.253.262.047.065.064.148.162.159-.073.11-.017.311-.141.335l-.022-.131c-.013.388-.34.544-.282.858l.285.062c.07.217-.24.313-.108.518-.081-.08-.05-.086-.172.013-.003-.076.103-.192.13-.312l-.228.215.177-.377c-.153.143-.122.137-.22.04-.15.22.073.293-.093.496.02.093.143.032.178.14-.151.18.11.44-.076.55.018.054.029-.082.092-.054-.059.125-.07.223-.165.24l-.003-.12c-.017.1-.136.089-.116.295-.091.093-.247.12-.22 0-.029.044.02.169.115.153-.073.295-.339.065-.277.383.014-.017.034-.035.048-.02a.297.297 0 0 1-.043.18c.089-.246.207.135.232-.175.142.07-.027.234.006.343-.138.12-.22-.039-.313.015.048.011.033.071.035.147l-.096-.098c-.016.06-.03.12-.076.185l.077-.11c-.013.137.117.382-.05.583.06-.05.184-.147.203.022-.137.233.033.071.083.236-.089.244-.214-.01-.238.378-.01.04-.067-.015-.088-.063-.008.266-.128.381-.111.646 0-.114-.017-.206-.11-.077.11-.037.032.223.065.332l-.064.01c.041.091.087.017.124-.039-.02-.003-.031-.03-.014-.074.078-.107.283-.006.252.19-.109.189-.25.115-.298.065-.014.288-.329.184-.311.467-.016.06.158.32.128.515-.156.062-.033-.262-.173-.184.238.404-.374.589-.302 1.052l.173-.007c-.018.098-.034.195-.082.297l-.046-.165c-.063.085-.097.318.044.28-.19.178-.128.245-.146.457.049-.216-.021-.01.106-.141.012.245-.045.247-.125.39.063-.008.124.098.107.158-.143.114-.19.37-.308.553l.048.014c-.165.318-.061.75-.305 1.046v.001c-.005.004-.007.01-.012.014v-.03c-.113-.162-.187.23-.28.314.03.035.092.067.074.125-.14-.04-.112.108-.192.136.012.131.171.038.102.235-.037.074-.113.06-.162.033.056.064.069.209.05.319.048-.024.02-.096.037-.117.078.01.028.072.122.1-.022.097-.142-.004-.133.128l.145-.072c.012.056-.053.1-.07.12.05-.061.159-.015.22.016-.17.245-.312-.044-.437-.069 0 .284-.211.436-.285.632l.141.005c-.052.09-.096.127-.164.143l-.05.15c.075-.071.125-.086.23-.057-.089.146-.13.375-.315.357l.03.003c-.005.234-.13.683-.068.689-.138.204-.144.525-.315.47-.089.119.091.427-.155.445.054.2.042.025.185.022.053.201-.29.257-.067.4-.142.158-.034-.062-.164-.04.213.126-.091.358-.034.579-.122.042-.025-.1-.174-.005.062.009.044.084.034.121l-.153-.02.276.31c-.268.196-.22-.147-.421.173l.02-.016c.107.152-.207.202-.197.496.007-.097.081-.007.132-.018l-.112.115c.012-.01.024-.011.035.009.056.165-.1.082-.062.264.067-.087.161-.013.193.051l-.244.136.225-.002c-.072.204-.5.365-.286.577l.071-.085c.042.027.153.145 0 .236-.04.032-.163.01-.133-.043v.118c.143.006.286-.225.39-.365-.073.027-.165.13-.226.06.1-.12.24-.216.34-.332-.073.034-.167.033-.227.037 0-.176.133-.075.194-.183-.03-.064-.05-.107-.102-.095a.526.526 0 0 0 .16-.407s-.158.132-.193.01c.185-.246.358-.24.564-.504.347-.266.142-.722.386-.906.061.008.033.22.126.075-.123-.015-.038-.122-.08-.147.228-.11.056-.267.213-.347-.05.014-.057-.102-.072-.182-.147-.033.013-.21-.278-.034.305-.18.113-.473.506-.547l.015.08.029-.282-.001.012c.017-.12.061-.124-.03-.326-.059.053-.093.145-.151.198-.075-.182.21-.248.27-.4-.104-.028-.092.147-.2.059.023-.114.127-.182.19-.273l-.061-.006c-.039-.315.315-.01.19-.274.031.018.076.005.105.029-.035-.095-.08-.302-.208-.155a.355.355 0 0 1 .197-.211c.058.108.008.114.106.18l.187-.36c.014-.043-.066.012-.085.066-.155-.547.566-.82.354-1.446.076.087.094-.01.173-.039.022-.174.124-.415.114-.585l-.08.029c.201-.367.387-.606.427-.877.032-.004-.093-.025-.126.015.179-.154-.133-.497.134-.475v.077c.067-.391.37-.758.516-1.141-.123-.135-.081.221-.236.09.02-.289.227-.528.261-.838-.03.043-.047.027-.063.047-.015-.322.142.075.188-.18-.078-.008-.094-.025-.11-.119l.141-.039c-.016-.018-.11-.042-.157-.015.188-.067.171-.428.344-.474-.032-.033-.189-.01-.236-.06-.008-.144.076-.218.157-.291h-.001c-.08-.121-.002-.344-.033-.3.015-.252.094-.016.235-.172l.016.208.125-.326-.11.113c-.016-.17.156-.293.202-.473l.064.105.108-.19c-.173-.067.027-.273-.208-.215.009-.404.303-.588.407-.933-.015.06-.046.028-.078.033.012-.213.135-.311.26-.41-.063.012-.094.055-.142.044.06-.24.14-.12.261-.37-.093.054-.126.021-.127-.056.063.028.125-.022.156-.065-.407.11-.069-.333-.383-.278.08.006.334-.367.448-.214l-.044.065c.097.033.082-.075.107-.147-.026.034-.058.07-.078.065.208-.346.195-.767.386-1.168-.046.028-.151.182-.155.066.048-.431.296-.63.484-1.033-.222-.072-.14.45-.361.415.16-.433.34-.875.572-1.345-.294-.25.247-.454.057-.821.105.055.18-.09.223-.257-.105.038-.067-.14-.144-.105.136-.124.27-.539.048-.57.22.008.059-.318.234-.406-.038-.202.131-.387.118-.634.116.111.113-.217.188-.29-.014.022-.043.067-.06.05-.1-.094.16-.245.12-.391-.035-.07-.126-.012-.116-.11.096.018.28-.313.191-.468-.012.06-.06.052-.105.08.291-.586.231-1.288.554-1.883l-.183.08c-.123-.437.316-.207.356-.526.091-.876.044-1.812.305-2.632.059-.053.051.047.116.07-.006-.077-.136-.123-.033-.206l.083.038c-.162-.428.369-1.078.056-1.43.209-.342.016-.645.305-1.053-.051-.155-.179.136-.165-.058l.21-.389-.017.02c.332-.352-.096-1.106.177-1.574l-.017.02c-.062 0-.116-.116-.082-.194.048-.02.06.038.103.096.18-.43.201-.526.284-.876-.117.137-.054-.155-.175-.192.097-.079.12.076.224-.12.063-.292.003-.581 0-.833.127-.08.119-.216.257-.199.064-.331.15-.507.217-.916l-.045-.019c.19-.081-.027-.368.084-.428-.062.001-.094.04-.14.022l.087-.177c-.067.08-.238.102-.23-.053.147-.14.074.057.186-.004l-.15-.074c.036-.117.22-.122.245.033.065-.41.207-.8.24-1.17l-.11.022c.071-.195.115-.468.043-.603.032 0 .095-.04.124-.003.18-.218-.167-.053.029-.29-.05.058-.083.137-.146.138l.206-.471c-.076-.017-.202-.344-.1-.54.044-.002.093.067.094.121l.059-.127-.164-.13.188-.168-.15-.027c.053-.137.255-.163.26-.28-.029-.445-.094-.365-.189-.693.294.01.064-.487.282-.533-.154-.44.067-1.011.086-1.555l-.032.04c-.1-.249.257-.228.235-.483l-.052.055c-.107-.339.115-.873.281-1.156-.052.055-.14.01-.115-.085.068-.074.19.109.16-.07-.034.039-.092-.004-.088-.043l.168-.146c-.036-.452-.066-.98.082-1.422-.04-.091-.1-.037-.152-.024.082-.355.25-.696.322-1.017l-.162-.056c.022-.159.268-.063.149-.29-.016-.05-.03.135-.111.182-.083-.337.188-.166.211-.474l-.198.054c-.08-.249.136-.253.258-.323.266-.298-.33-.283-.105-.707.103-.058.134.042.236-.016-.006-.321.132-.34.126-.662-.258-.206-.022.16-.26-.058l.032.248c-.12-.226-.063.183-.225.128-.027-.161.145-.377.228-.572-.126-.017-.046.232-.204.117l.066-.097c-.041.023-.09.022-.094.083-.114-.053.01-.123.025-.22.066 0 .158.018.244.063a.109.109 0 0 1-.041-.032c.207-.179.115-.539.282-.694-.041.023-.05-.002-.078-.015.01-.124.192-.228.261-.387-.08-.101-.283.016-.198-.24.11-.034.276.107.3-.115 0 0-.11.182-.17.07"/>
            <path fill="#899FEF" d="M291.74 63.475c.01-.02.023-.03.03-.057.02.033.039.065.053.096l-.1.038.016-.077M284.046 102.147v-.021c.006.02.013.037.028.052-.01-.017-.019-.02-.028-.031M291.765 70.636l-.074-.013.077-.07zM283.753 104.568a.15.15 0 0 1 .05.088c-.017-.009-.033-.045-.05-.088M283.446 105.561l-.008.33a1.675 1.675 0 0 1 .008-.33M283.3 106.347c-.056.002-.095-.006-.13-.013l-.001-.004.13.017zM287.014 94.254a.232.232 0 0 1 .028-.06c.092-.137.045-.04-.028.06M285.75 97.88c.075-.068.148-.136.203-.213-.016.144-.04.253-.202.213M288.146 90.138h-.005l.013-.055-.008.055z"/>
            <path fill="#899FEF" d="M285.94 97.496a.483.483 0 0 1-.094.362c.012-.118.02-.26.093-.362M282.03 109.592l-.023.08a.087.087 0 0 0-.048-.01l.07-.07z"/>
            <path fill="#899FEF" d="M281.996 109.625l-.069.07c.017-.039.034-.071.069-.07M281.859 109.804l.145-.146c-.026.06-.05.14-.145.146M282.355 108.59l.109.016a.23.23 0 0 1-.11-.017"/>
            <path fill="#899FEF" d="M282.58 108.295c-.038.122.06.357-.088.5l-.086-.01c.187-.03-.05-.432.174-.49M282.63 106.82l-.131.5c-.069-.119-.164-.276-.285-.07-.052-.704.183.204.417-.43M282.734 106.11c-.155.269-.154-.061-.22-.068.164-.146.205-.181.22.068M284.627 100.38l-.266-.047c.103-.215.1.027.266.047M285.525 99.383l.096.268-.267.038zM284.788 98.625l-.064.09.198-.354zM287.224 88.7l.308.14c-.092.143-.463.096-.308-.14M288.322 84.712c-.142-.123-.196-.382-.006-.5-.018.196.068.41.006.5M290.387 71.629l-.14.166.148-.332zM289.525 82.275c-.093-.006-.286-.076-.23-.12l.346.062-.116.058z"/>
            <path fill="#899FEF" d="M289.163 81.954a.71.71 0 0 1 .5.131c-.217-.034-.135.022-.393-.025-.036.044.05.128.13.156-.06-.007.029.107-.11.073-.151-.148-.14-.242.016-.272-.043-.042-.103-.049-.143-.063M289.74 79.358l.028.048c-.018-.017-.026-.033-.027-.048M290.258 77.786c-.017.022-.053.02-.084.01.03-.015.058-.026.084-.01M290.154 77.456c.006.016.007.027.01.041-.025-.024-.037-.043-.01-.041"/>
            <path fill="#899FEF" d="M289.78 79.424l-.073-.124c.11.031.063.073.072.124M289.704 81.728a.22.22 0 0 1-.103.02.253.253 0 0 0 .05-.033l.053.013M289.456 80l-.01.026-.142-.022.152-.004zM289.182 80.525c-.004-.03.28.053.406.084-.12-.024-.182-.023-.21-.008a1.773 1.773 0 0 1-.196-.076M289.175 81.436l-.049.02c.015-.005.03-.015.05-.02M289.53 79.637a.818.818 0 0 1-.096-.044.545.545 0 0 1 .096.044M297.25 66.308l-.042-.031c.028.012.046.022.043.03M297.137 65.423l-.024.005-.132-.1zM290.178 76.91l.004.007c-.042.014-.03.001-.004-.007M292.15 72.603c.164.218.336-.02.5.262-.084-.064-.419-.06-.5-.262"/>
            <path fill="#899FEF" d="M289.636 81.725a.12.12 0 0 0 .017-.044c.003.023-.002.037-.017.044M292.421 72.727h.003l.017.029-.02-.03M290.686 75.836c.046.025.078.05.11.073a.452.452 0 0 1-.11-.073M290.546 76.76l-.02-.057c.018.027.022.044.02.058M291.055 75.526c-.01-.032-.045-.056.005-.072a.216.216 0 0 1 .029.024c-.042-.004-.065.003-.034.048M291.229 75.048l.048.04-.027.024-.021-.064zM296.478 67.517a1.919 1.919 0 0 0-.196-.184c.167.128.31.048.196.184"/>
            <path fill="#899FEF" d="M289.575 81.697c.073.017.11.02.13.01a.145.145 0 0 1-.025.026.383.383 0 0 1-.105-.036M292.06 75.982l.022-.163c.01.052 0 .111-.021.163M294.628 70.298l.048-.015c0 .016-.014.023-.048.015M292.256 75.709a.582.582 0 0 1-.153-.163c.024.003.044.004.077.013l.076.15zM296.28 67.332l.004.002-.003-.002z"/>
            <path fill="#899FEF" d="M294.906 67.66l-.015-.007a.128.128 0 0 0-.035.025c-.023-.018-.042-.039-.013-.048a.54.54 0 0 1 .063.03m.539.639c.005-.013.05.008.088.037a.175.175 0 0 0-.027.055c-.024-.04-.03-.082-.061-.092m.162-.05a.94.94 0 0 1-.024.025l-.002-.002.026-.023m1.071-1.206c.1-.016-.016-.037-.08-.157.144.054-.004-.087.2.043-.12-.109-.074-.07-.145-.172.097.09.155.006.282.097-.137-.116-.223-.064-.345-.216.121.035.2 0 .362.106-.02-.05-.07-.1-.06-.15.006.013-.03-.001-.048-.008.154.007.117-.168.335-.071-.238-.149.073-.162-.176-.262.028-.023.156.003.205.024-.178-.125.005-.101-.077-.207.11.056.113-.018.192-.006-.03-.002-.066-.017-.11-.057.096.019.021-.023-.041-.114.088-.006.127.107.23.14-.011-.067-.107-.088-.174-.148l.22.074a.305.305 0 0 0-.08-.099c.066.018.153.057.09-.034l-.042.045-.075-.087.156.028c-.067-.176-.268-.301-.454-.437l-.06.01c-.06-.048-.076-.101-.066-.12-.028-.049-.244-.093-.299-.07-.069.117.197.184.187.291l-.178.015.062.048c.031.046-.044.003-.062-.004.097.062-.026.1-.04.15l-.07-.073c-.271-.031.081.318-.08.33l-.183-.039.112.099c-.096-.015-.196-.076-.194.013.07.352-.342.394-.346.697-.023-.02-.028-.031-.038-.057.189.39-.514.078-.377.408l.054.018c-.08.07.054.02.084.126-.161-.087-.189.032-.277.046.037.012.044-.007.075-.007.03.031.118.093.074.1-.255-.086-.308.047-.43.093.095.074.135.205.275.347l-.215-.079c.046.073-.019.065-.093.05a.817.817 0 0 1 .052-.066l-.012-.004c.01.001.014-.003.02-.005.017-.016.028-.023.034-.013-.076-.096-.08-.047-.196-.122-.013.032-.091.066-.006.128-.009.019-.003.038.004.067-.025 0-.042.006-.04.025l.017.002a.334.334 0 0 1 .032.03c.017.088-.209.06-.32.056.179.045.162.115.27.181-.011 0 .017-.061.058-.135a.237.237 0 0 0 .064.054c.077.132-.166.044-.14.183a.155.155 0 0 1 .085.034c.011.05-.094.027-.163-.005.101.073.137.187.069.192-.106-.023-.144-.051-.168.008l.09.022c.025.101-.142-.014-.112.075-.018-.039.063.006.069.031-.082.042-.126.018-.304-.023l.123.061c-.104.015-.311.038-.151.134-.237-.163-.203.05-.227.102.017-.013.071.014.099.028-.225.01-.128.21-.192.314l.171.12c-.04.052-.406-.136-.434-.07l.1.027c-.092.091-.102.143-.12.248l.122.068c-.074-.001-.095.039-.17.039.258.237-.313.2-.053.515l-.233-.117c-.023.053-.104.093.055.21l.002-.013c.178.09-.023.053-.002.106-.032.013-.16-.025-.183-.064.044.197-.188.331-.023.527-.145.095-.382.102-.434.262l.028.012c.006.067.017.198.21.298-.098.082-.4.013-.379.184l.088.01c.022.052-.097.056-.126.057-.002.013.04.025.069.037.05.064-.063.029-.095.043l.071.024c.082.167-.265.193-.294.341.031-.014.099.036.125.06-.243-.053-.262.12-.34.15l.102.009c-.194.037.185.204-.011.24l-.096-.122c.016.061-.044.078-.135.02.047.085.163.087.147.173.06.033.068-.034.135.029l.112.183c.016.012.014.027-.02.053-.267-.14-.056.08-.296-.1-.092.14.027.35-.16.418.239.177-.112.258.237.406-.03.074-.124.1-.284.081-.02-.027.031-.025.055-.032-.096-.022-.15.06-.165.097.1-.012.202-.059.35-.035-.063.05-.233.083-.293.1l.17.099c-.155-.004.122.112-.078.088l-.048-.035c-.034.108-.21.029-.277.114l.073.027c.013.045-.175.02-.03.123l.035-.059c.122.063.155.135.208.184-.062.051-.213-.068-.244-.042.11.066.06.031.185.06-.074.054-.168.131-.341.117.017.011.044.02.044.02-.013.085-.255.06-.176.15l.024-.007c.144.136-.234.087.054.229.042.053.018-.071.142.038.052.132-.275-.048-.226.07-.005-.016.011-.005.04.003a.774.774 0 0 1-.15.173c.207.182-.161.218.08.428-.087-.071-.124-.026-.169-.045 0 0 .028.007.045.019-.007.036-.102 0-.147-.004.074.063-.13.053-.082.094-.062-.025-.057.008-.068.038.094-.03.141.037.25.052-.006.1-.316-.013-.306.1l.097.1c-.184-.065-.147.051-.214.022.05.039.073.075.165.11-.06.018.01.111-.104.083l-.031-.056c.02.142-.268.105-.184.242l.27.108c.087.103-.193.048-.05.164-.083-.054-.055-.047-.16-.045-.01-.03.079-.043.092-.08l-.192.015.129-.092c-.129.01-.1.016-.2-.05-.119.04.095.133-.039.163.028.041.136.054.18.105-.121.026.148.2-.013.189.022.026.018-.023.08.006-.041.03-.042.064-.128.044l-.016-.047c-.005.034-.118-.005-.077.08-.075.01-.217-.024-.205-.062-.023.008.037.07.123.09-.032.095-.306-.069-.211.072a.052.052 0 0 1 .041.006c.011.03.004.048-.019.057.054-.07.209.11.196-.003.14.067.002.083.046.134-.115.007-.21-.076-.29-.08.046.017.039.036.05.065l-.102-.064c-.007.02-.013.038-.048.05l.059-.02c.003.049.154.179.02.21.052-.002.156-.006.194.064-.1.052.038.036.105.113-.054.07-.201-.061-.178.08-.004.013-.064-.023-.09-.047.023.1-.07.113-.02.22-.016-.044-.044-.084-.113-.059.097.015.06.095.104.146l-.058-.013c.05.046.084.03.111.018-.019-.007-.033-.02-.023-.033.058-.021.263.072.26.14-.076.043-.219-.022-.27-.053.026.107-.282-.014-.228.1-.007.019.19.163.188.23-.138-.016-.065-.109-.187-.114.275.214-.267.134-.126.334l.16.04c0 .034 0 .068-.03.096l-.068-.075c-.046.017-.04.1.085.12-.15.023-.081.064-.064.142.012-.072-.021-.008.076-.03.051.099-.002.086-.054.123.058.011.132.067.126.086-.115.011-.122.098-.197.144l.046.016c-.097.087.077.28-.098.34l-.008.004-.006-.012c-.134-.089-.133.049-.206.061.035.02.098.046.092.065-.138-.047-.086.017-.156.01.035.055.167.053.138.115-.02.02-.093-.001-.145-.022.065.037.106.097.11.137.04 0 0-.034.012-.039.075.02.04.035.132.065 0 .034-.133-.031-.098.022l.121.003c.023.024-.03.028-.04.032.034-.013.144.028.207.053-.11.06-.3-.083-.42-.12.056.113-.11.13-.14.191l.132.031c-.03.025-.065.03-.124.023l-.017.048c.055-.012.1-.008.203.024-.054.04-.043.122-.22.078l.03.008c.04.09.03.245.089.26-.08.055-.01.181-.182.128-.055.03.184.186-.04.148.096.09.045.018.177.043.096.088-.209.049.032.145-.096.037-.047-.03-.162-.045.224.086 0 .126.113.225-.1-.004-.048-.045-.16-.032.058.014.061.041.063.055l-.148-.034.337.17c-.196.033-.241-.096-.344-.001l.015-.003c.138.078-.138.047-.051.166-.02-.037.072.01.116.013l-.073.028c.01-.001.02 0 .035.01.095.073-.07.016.012.094.04-.024.146.02.193.05l-.185.018.206.033c-.005.07-.35.072-.09.188l.04-.023c.045.016.182.08.069.093-.028.007-.146-.019-.134-.036l.035.047c.132.023.195-.048.247-.088-.057 0-.111.027-.188-.01.056-.033.156-.05.212-.081-.057.002-.142-.012-.196-.02-.053-.07.099-.01.123-.044-.047-.03-.078-.05-.122-.053.068-.03.092-.064.04-.135 0 0-.111.027-.175-.027.106-.068.267-.037.387-.108.251-.046-.062-.262.12-.292.058.014.082.092.135.052-.119-.028-.064-.055-.11-.072.186-.002-.011-.094.116-.097-.043-.003-.077-.05-.11-.084-.144-.04-.037-.08-.266-.064.241-.015-.006-.166.341-.122l.033.035-.04-.106.002.005c-.011-.044.028-.038-.104-.135-.041.01-.052.04-.093.05-.11-.087.135-.06.158-.107-.104-.031-.053.04-.174-.016-.005-.04.08-.046.12-.07l-.059-.013c-.102-.132.292.059.12-.07.032.013.072.017.104.032-.054-.043-.136-.133-.227-.102.01-.03.073-.048.142-.042.075.054.03.046.135.092l.102-.102c.004-.013-.06-.008-.066.008-.252-.245.356-.201.05-.486.086.05.086.017.155.023-.01-.062.041-.132.002-.2l-.07-.007c.122-.097.252-.147.241-.243.03.006-.09-.032-.115-.023.138-.02-.205-.223.047-.152l.012.03c0-.135.225-.204.3-.316-.137-.082-.04.066-.207-.023-.028-.106.127-.148.11-.26-.023.01-.039 0-.051.003-.062-.128.143.064.149-.022-.074-.023-.091-.033-.119-.073l.127.02a.532.532 0 0 0-.15-.045c.168.023.103-.119.258-.092-.034-.02-.177-.052-.229-.083-.026-.057.043-.064.108-.071-.091-.067-.049-.132-.072-.124-.02-.092.086.02.197-.004l.042.084.073-.092-.087.015c-.038-.07.107-.07.125-.128l.074.058.075-.044c-.17-.072-.007-.096-.22-.137-.04-.151.213-.14.267-.242-.006.018-.039-.003-.068-.01-.015-.077.09-.08.193-.083-.057-.013-.08-.005-.126-.023.026-.074.115-.006.198-.068-.08-.005-.115-.027-.125-.056a.205.205 0 0 0 .138.019c-.365-.073-.104-.146-.39-.214.075.024.272-.044.395.047l-.034.012c.093.04.068-.005.083-.025-.02.005-.046.01-.066.002.158-.07.098-.234.237-.328-.04-.003-.123.024-.138-.02.004-.148.212-.15.35-.244-.214-.094-.088.126-.297.047.105-.115.239-.224.412-.328-.294-.184.19-.092-.017-.288.102.053.16.023.183-.027-.093-.018-.073-.073-.141-.084.115-.004.208-.115 0-.197.204.073.03-.1.187-.076-.051-.087.091-.102.06-.197.116.078.09-.044.152-.047-.01.003-.035.01-.05 0-.1-.069.128-.04.082-.107-.037-.037-.117-.046-.114-.079.089.038.239-.021.148-.108-.008.019-.052 0-.092-.005.235-.117.14-.396.402-.504l-.163-.034c-.138-.204.28.034.3-.07.044-.285-.055-.652.163-.851.051.002.048.035.108.067-.008-.03-.128-.094-.037-.086l.077.044c-.161-.215.301-.253.005-.499.179-.046-.002-.227.25-.265-.05-.075-.158-.019-.15-.084l.18-.06h-.014c.292.001-.116-.44.13-.5l-.015.001c-.055-.024-.106-.087-.075-.101.042.011.054.037.093.074.158-.082.177-.108.248-.2-.104.002-.05-.077-.16-.14.088.011.109.076.201.048.054-.08-.002-.208-.005-.3.114.024.106-.028.23.035.057-.092.133-.12.192-.238l-.04-.025c.17.05-.026-.143.074-.118-.056-.025-.085-.025-.126-.05l.078-.027c-.06 0-.212-.063-.205-.115.132.012.066.052.166.076l-.134-.09c.034-.025.2.051.22.116.062-.117.192-.195.225-.31l-.098-.04c.065-.039.106-.116.044-.194.028.013.085.026.11.052.162 0-.147-.091.03-.09-.045-.001-.076.012-.132-.014l.19-.078c-.068-.039-.175-.208-.082-.234.04.019.082.065.082.084l.054-.018-.142-.118.169.023-.133-.075c.049-.026.228.054.234.015-.017-.169-.075-.17-.152-.326.26.134.07-.142.264-.06-.124-.223.087-.322.119-.504h-.03c-.079-.133.233.038.222-.06l-.047-.005c-.083-.168.13-.25.287-.27-.047-.005-.122-.061-.097-.083.062.007.161.127.142.052-.03-.003-.08-.045-.075-.056l.152.028c-.012-.17-.015-.367.133-.448-.03-.05-.085-.06-.131-.081.087-.083.248-.119.328-.192l-.137-.098c.028-.043.235.11.144-.026-.01-.024-.033.032-.106.007-.052-.155.172.037.208-.056l-.174-.08c-.054-.124.131-.02.24.018.245.032-.268-.26-.05-.291.092.031.113.08.203.112.013-.111.132-.049.146-.16-.208-.2-.028.043-.218-.15l.012.1c-.089-.138-.064.03-.199-.07-.014-.07.146-.056.228-.08-.106-.07-.054.055-.18-.063h.061c-.036-.013-.078-.038-.085-.02-.094-.075.016-.037.036-.062.057.035.133.087.204.146a.232.232 0 0 1-.033-.032c.188.046.134-.12.286-.087-.036-.014-.042-.026-.065-.045.016-.037.178.023.247.006-.062-.076-.241-.142-.151-.183.095.046.226.179.261.118 0 0-.105.003-.148-.066"/>
            <path fill="#899FEF" d="M295.027 67.695c.01-.003.022 0 .029-.006a.633.633 0 0 1 .041.06l-.087-.035.017-.02zM289.758 79.389l-.004-.008c.009.008.018.017.035.026l-.031-.018M294.797 70.207l-.065-.037.07.01zM289.95 80.27a.209.209 0 0 1 .066.045.274.274 0 0 1-.065-.044M289.88 80.599l.07.128a.412.412 0 0 1-.07-.128M289.934 80.88c-.052-.009-.09-.019-.124-.028l-.001-.002.125.03zM291.393 77.102a.037.037 0 0 1 .02-.014c.071-.025.038-.002-.02.014M290.655 78.119c.06-.007.119-.014.16-.029.005.051-.003.086-.16.029M292.062 75.914l-.005-.002.008-.016-.003.018z"/>
            <path fill="#899FEF" d="M290.771 78.037c.039.063.013.095-.038.114-.005-.042-.017-.094.038-.114M289.616 81.942l.004.029a.346.346 0 0 0-.047-.011l.043-.018z"/>
            <path fill="#899FEF" d="M289.596 81.951l-.043.018c.004-.013.01-.023.043-.018M289.511 81.996l.09-.037c-.006.02-.005.048-.09.037M289.634 81.6l.104.023a.604.604 0 0 1-.104-.023"/>
            <path fill="#899FEF" d="M289.708 81.506c.008.057.178.193.093.242l-.084-.019c.163.015-.196-.229-.009-.223M289.391 80.907l.026.203c-.099-.066-.232-.153-.284-.08-.253-.327.228.123.258-.123M289.34 80.67c-.08.079-.157-.052-.22-.067.118-.028.147-.035.22.067M289.99 78.825l-.257-.081c.062-.06.098.034.256.08M290.65 78.642l.132.127-.244-.05zM289.844 78.161l-.048.019.138-.087zM291.098 75.078l.295.152c-.075.024-.42-.112-.295-.152M291.875 73.95c-.137-.1-.199-.221-.03-.201-.006.071.082.186.03.2M293.558 69.94h-.126l.136-.056zM286.05 97.668c-.092-.008-.287-.074-.233-.108l.345.064-.113.044z"/>
            <path fill="#899FEF" d="M285.677 97.383a.85.85 0 0 1 .5.143c-.216-.043-.133.01-.39-.047-.035.035.052.111.132.14-.059-.01.033.09-.107.055-.154-.134-.145-.213.009-.229-.044-.038-.103-.048-.144-.062M286.204 95.202l.026.045c-.018-.017-.025-.032-.026-.045M286.752 93.91c-.017.017-.052.01-.081-.003.029-.009.056-.015.08.003M286.66 93.608c.005.015.005.025.008.038-.024-.025-.035-.044-.008-.038"/>
            <path fill="#899FEF" d="M286.241 95.264l-.07-.116c.106.04.061.07.07.116M286.202 97.218a.245.245 0 0 1-.1.012.268.268 0 0 0 .048-.026l.052.014M285.928 95.727l-.01.022-.139-.033.149.01zM285.648 96.153c-.005-.026.274.069.399.105-.119-.03-.179-.034-.206-.023a2.223 2.223 0 0 1-.193-.082M285.67 96.942l-.047.014c.015-.003.03-.011.047-.014M285.999 95.422a1.053 1.053 0 0 1-.094-.049c.034.014.065.03.094.049M294.16 85.385l-.037-.036c.025.016.042.03.038.036M294.104 84.564h-.023l-.117-.116zM286.717 93.14l.003.005c-.042.006-.03-.003-.003-.006M288.904 89.777c.153.23.35.067.5.354-.083-.078-.432-.157-.5-.354"/>
            <path fill="#899FEF" d="M286.135 97.213a.083.083 0 0 0 .015-.037c.004.02 0 .032-.015.037M289.15 89.944h.002l.014.029a.758.758 0 0 0-.015-.03M287.264 92.293c.043.03.073.057.1.084a.559.559 0 0 1-.1-.084M287.083 93.075l-.016-.053c.016.026.018.042.016.053M287.643 92.092c-.008-.03-.04-.057.01-.061l.026.026c-.04-.012-.064-.01-.036.035M287.844 91.715l.042.044-.028.015-.014-.06zM293.365 86.296a2.354 2.354 0 0 0-.17-.207c.147.151.285.11.17.207"/>
            <path fill="#899FEF" d="M286.075 97.187c.072.018.11.022.129.015a.14.14 0 0 1-.024.021.462.462 0 0 1-.105-.036M288.583 92.678l.031-.135a.216.216 0 0 1-.03.135M291.427 88.318l.046-.002c-.002.013-.015.017-.046.002M288.782 92.486a.63.63 0 0 1-.135-.17c.022.008.042.013.072.027l.063.143zM293.195 86.088l.002.002-.002-.002z"/>
            <path fill="#899FEF" d="M291.894 86.066l-.015-.01a.111.111 0 0 0-.034.015c-.02-.021-.035-.044-.008-.045.016.01.036.024.057.04m.452.687c.005-.01.046.019.079.053a.13.13 0 0 0-.03.042c-.018-.04-.021-.078-.05-.095m.156-.006l-.024.016-.003-.002a.864.864 0 0 1 .027-.014m1.081-.829c.094.008-.012-.036-.062-.157.129.08.002-.078.182.083-.104-.124-.064-.08-.123-.185.084.101.143.039.255.148-.12-.134-.202-.106-.305-.27.11.059.183.045.327.174-.015-.048-.058-.105-.046-.147.005.013-.028-.008-.044-.018.142.039.12-.124.315.01-.21-.184.078-.129-.146-.272.027-.015.144.035.188.064-.158-.15.01-.09-.06-.203.099.074.106.009.179.037a.22.22 0 0 1-.1-.075c.089.038.022-.016-.03-.111.08.013.111.124.204.175-.006-.064-.093-.102-.152-.17l.199.111a.347.347 0 0 0-.068-.106c.06.03.139.083.085-.012l-.041.032-.065-.094.142.058c-.05-.176-.232-.328-.397-.488l-.055-.003c-.054-.056-.066-.107-.057-.122-.024-.049-.218-.135-.27-.126-.07.09.172.208.158.302l-.165-.025.055.056c.026.048-.042-.006-.058-.016.087.077-.03.083-.044.125l-.062-.08c-.248-.087.06.303-.092.278l-.167-.075.098.113c-.089-.035-.178-.111-.18-.032.045.333-.341.278-.366.545-.021-.023-.024-.035-.032-.06.15.39-.479-.043-.377.279l.05.029c-.08.043.048.029.067.13-.143-.114-.177-.015-.26-.023.033.02.041.004.07.01.025.035.103.11.061.106-.23-.134-.29-.029-.406-.014.083.087.112.213.232.37l-.194-.118c.037.074-.023.052-.091.023a.556.556 0 0 1 .053-.047l-.01-.007c.008.003.013.001.019 0 .017-.01.028-.013.033-.003-.063-.102-.071-.06-.174-.153-.015.025-.09.038-.015.112-.01.014-.006.033-.002.06-.023-.006-.04-.005-.039.013l.015.005c.013.014.02.024.028.034.008.082-.2.004-.303-.024.163.08.142.138.238.221-.011-.002.02-.05.064-.105.007.013.022.03.055.061.062.135-.158.001-.145.13a.184.184 0 0 1 .077.049c.006.047-.09.003-.152-.042.089.088.113.197.05.186-.097-.045-.13-.079-.157-.031l.082.039c.015.095-.132-.045-.11.041-.013-.038.058.02.062.044-.08.018-.117-.012-.281-.09l.11.083c-.098-.01-.294-.039-.152.082-.208-.198-.194-.003-.22.038.017-.008.065.029.09.047-.211-.043-.138.154-.206.231l.15.145c-.04.037-.37-.213-.4-.162l.09.047c-.093.059-.105.105-.13.193l.11.087c-.07-.017-.093.013-.163-.004.222.267-.31.103-.093.439l-.21-.156c-.026.04-.106.057.034.196l.003-.01c.16.12-.026.04-.01.091-.032.004-.148-.058-.167-.098.023.182-.203.249-.063.458-.146.05-.37.003-.432.131l.026.017c0 .06-.001.177.173.307-.1.05-.38-.078-.374.075l.082.03c.017.049-.096.026-.124.02-.003.012.037.031.062.048.043.067-.062.011-.093.017l.065.036c.062.163-.262.113-.304.235.03-.006.09.053.114.08-.226-.1-.26.047-.335.056l.096.03c-.188-.01.157.218-.031.206l-.08-.127c.01.057-.049.058-.131-.012.038.085.148.111.125.183.054.041.068-.015.126.054l.091.184c.015.014.012.027-.023.042-.243-.18-.06.057-.273-.152-.1.102-.003.31-.187.33.215.206-.122.204.198.405-.034.058-.126.061-.277.01-.017-.027.032-.015.055-.016a.127.127 0 0 0-.165.05c.096.01.197-.009.336.043-.064.03-.228.023-.287.026l.155.12c-.148-.035.107.123-.082.06l-.043-.04c-.04.086-.203-.019-.273.041l.067.039c.01.042-.168-.02-.037.1l.038-.043c.11.079.137.148.184.202-.064.031-.199-.103-.23-.087.1.08.055.04.172.09-.075.032-.17.079-.335.031a.23.23 0 0 0 .04.026c-.018.071-.249 0-.179.095l.023-.002c.13.149-.226.032.04.212.037.055.02-.058.132.062.043.125-.257-.095-.219.016-.003-.014.012 0 .038.012a.593.593 0 0 1-.156.12c.186.198-.17.157.048.385-.08-.078-.119-.047-.16-.071 0 0 .026.011.041.024-.008.03-.098-.019-.141-.03.067.068-.13.02-.085.065-.058-.034-.056-.004-.069.02.093-.008.134.058.238.091-.014.086-.304-.07-.303.028l.087.105c-.174-.09-.146.017-.207-.02.044.042.064.078.15.124-.059.005.004.1-.103.054l-.028-.055c.013.129-.26.046-.186.182l.255.141c.079.105-.187.009-.055.136-.078-.062-.05-.051-.15-.068-.009-.027.076-.023.09-.054l-.184-.02.126-.059c-.123-.013-.096-.002-.19-.077-.114.015.087.133-.043.136.023.04.127.07.166.122-.119.001.131.198-.024.16.02.027.02-.017.078.019-.042.02-.045.049-.127.016l-.013-.043c-.007.028-.113-.024-.08.056-.073-.005-.209-.058-.194-.089-.023.004.032.068.114.1-.037.075-.294-.112-.21.026.01-.001.026 0 .04.011.008.028 0 .043-.022.047.056-.052.196.13.19.03.132.081-.003.072.037.123-.113-.012-.2-.1-.277-.118.043.023.035.038.043.066l-.094-.073c-.008.016-.015.031-.05.036l.058-.008c0 .043.14.18.008.185.05.007.151.02.184.087-.1.028.036.037.096.114-.056.05-.194-.087-.177.04-.004.01-.061-.03-.085-.055.02.09-.07.089-.025.19-.014-.04-.04-.08-.108-.068.094.027.056.092.098.143l-.056-.02c.048.048.08.039.107.032-.018-.008-.032-.022-.022-.032.057-.01.252.103.248.16-.074.028-.21-.05-.259-.085.022.097-.272-.054-.223.054-.007.016.18.17.177.229-.133-.034-.061-.105-.178-.127.263.227-.266.079-.137.272l.155.057c-.002.029-.003.058-.033.078l-.064-.074c-.045.009-.044.08.078.114-.147 0-.082.045-.069.114.015-.06-.02-.01.077-.015.045.091-.007.073-.059.097.056.018.127.076.12.091-.114-.006-.124.067-.2.096l.045.02c-.094.065.075.253-.095.285l-.007.002-.007-.01c-.13-.093-.129.026-.2.03.034.02.096.05.09.066-.134-.056-.084.006-.152-.008.034.051.163.064.135.114-.02.016-.091-.01-.142-.034.064.04.104.096.108.13.04.005 0-.029.011-.032.073.026.04.035.13.071 0 .029-.13-.042-.096.009l.118.015c.022.023-.028.02-.04.023.035-.008.142.04.204.068-.108.039-.293-.103-.412-.147.056.102-.107.1-.136.15l.13.04c-.03.02-.063.02-.122.008l-.017.04c.055-.005.098.003.2.041-.053.029-.044.1-.218.045l.029.01c.037.08.025.212.083.23-.081.039-.015.152-.182.093-.053.023.185.175-.035.126.097.084.045.018.175.05.097.084-.203.027.036.128-.092.025-.047-.03-.16-.05.222.09.004.108.118.201-.099-.01-.049-.042-.159-.038.058.016.062.04.064.051l-.145-.039.336.169c-.192.015-.24-.098-.338-.023l.014-.001c.14.075-.134.032-.044.14-.02-.034.072.012.115.018l-.071.02c.009-.001.02 0 .034.01.097.068-.068.01.016.08.038-.017.145.026.192.054l-.181.005.203.039c-.002.059-.342.045-.081.155l.038-.018c.046.017.184.076.073.082-.027.005-.145-.022-.134-.036l.036.041c.132.025.19-.031.24-.063-.056-.003-.108.018-.185-.017.054-.025.152-.035.206-.058-.056-.001-.141-.018-.195-.027-.054-.062.098-.003.12-.03-.048-.028-.079-.047-.122-.052.066-.022.088-.049.034-.112 0 0-.109.016-.174-.033.103-.052.262-.017.377-.068.244-.022-.071-.228.106-.24.058.017.084.084.134.055-.117-.033-.065-.051-.11-.07.182.014-.014-.08.11-.072-.042-.007-.077-.05-.11-.081-.143-.046-.04-.072-.263-.077.236.008-.013-.144.332-.074l.032.032-.038-.092.002.004c-.01-.038.028-.029-.101-.124-.04.005-.052.03-.093.033-.108-.083.135-.037.158-.074-.102-.037-.053.029-.171-.03-.004-.035.08-.032.12-.047l-.058-.018c-.099-.121.287.08.119-.047.032.015.071.022.102.038-.051-.042-.133-.127-.222-.11.01-.024.07-.034.139-.021.074.054.03.042.133.092l.098-.076c.004-.011-.058-.014-.064 0-.248-.237.345-.132.045-.41.084.052.084.023.15.037-.01-.054.04-.109 0-.172l-.067-.014c.118-.069.241-.096.233-.178a.38.38 0 0 0-.111-.035c.135.002-.194-.217.051-.122l.01.026c.006-.114.229-.14.306-.224-.13-.089-.042.05-.2-.049-.023-.094.13-.108.117-.204-.022.004-.038-.007-.05-.006-.055-.118.137.076.146.003-.071-.03-.087-.04-.113-.079l.121.036a.632.632 0 0 0-.143-.06c.162.043.101-.089.25-.043-.032-.023-.17-.07-.219-.105-.025-.054.041-.05.105-.046-.087-.071-.045-.122-.067-.118-.017-.083.082.03.189.027l.04.079.071-.068-.084-.001c-.035-.066.104-.045.122-.09l.07.06.073-.026c-.162-.089-.005-.083-.209-.153-.031-.135.214-.084.273-.161-.007.015-.038-.009-.066-.02-.01-.068.09-.053.191-.037-.054-.021-.077-.019-.12-.041.029-.06.112.014.195-.024-.077-.018-.11-.043-.117-.07a.238.238 0 0 0 .131.04c-.35-.125-.092-.142-.364-.25.07.034.265.01.379.11l-.034.004c.088.05.066.007.082-.007a.128.128 0 0 1-.064-.01c.156-.032.11-.18.245-.237-.038-.01-.118-.001-.13-.042.007-.127.206-.093.34-.148-.2-.12-.088.093-.284-.013.103-.082.234-.151.41-.206-.271-.213.188-.042.002-.249.094.065.152.05.178.013-.089-.034-.066-.077-.13-.1.11.02.206-.056.013-.168.19.103.036-.078.183-.027-.042-.086.095-.07.072-.158.105.091.087-.02.148-.009-.011.001-.034.002-.049-.01-.09-.08.125-.009.084-.076-.033-.04-.108-.063-.104-.091.082.05.227.029.145-.065-.008.015-.05-.011-.086-.023.229-.054.16-.312.418-.35l-.153-.063c-.117-.204.263.088.29.004.062-.236 0-.571.215-.7.049.013.042.04.097.08-.006-.027-.115-.108-.028-.082l.069.055c-.136-.22.305-.152.044-.429.173 0 .016-.197.258-.174-.041-.076-.149-.051-.137-.106l.177-.012-.014-.003c.277.067-.074-.407.16-.406l-.014-.003c-.05-.033-.093-.1-.063-.105.04.02.049.045.082.086.156-.036.176-.054.25-.118-.098-.022-.04-.078-.139-.157.082.03.096.09.186.086.057-.056.014-.18.019-.26.106.046.102-.001.214.082.06-.068.135-.074.2-.163l-.036-.031c.155.082-.012-.13.08-.086-.05-.035-.078-.04-.114-.072l.074-.006c-.055-.013-.194-.103-.183-.148.122.04.058.06.15.105l-.12-.11c.034-.014.183.09.198.152.065-.09.195-.127.235-.22l-.089-.057c.065-.02.11-.077.058-.16.025.018.077.043.1.07.151.039-.132-.112.034-.071-.042-.01-.072-.006-.122-.042l.184-.024c-.06-.05-.146-.222-.057-.224.035.026.071.076.07.093l.052-.004-.124-.136.157.06-.118-.097c.047-.01.209.1.218.068-.003-.152-.058-.167-.118-.323.23.177.076-.108.25.008-.097-.224.109-.262.153-.414l-.027-.007c-.064-.135.214.088.212-.001l-.043-.015c-.064-.166.141-.19.287-.173-.044-.015-.11-.082-.085-.096.058.02.14.149.13.079-.03-.01-.072-.058-.066-.067l.14.06c.001-.153.014-.327.158-.364-.024-.051-.074-.073-.116-.102.088-.053.242-.046.32-.095l-.12-.118c.029-.032.21.15.135.01-.009-.025-.033.02-.098-.018-.039-.15.155.07.196-.004l-.156-.11c-.04-.121.123.013.222.07.226.085-.23-.29-.024-.268.082.048.098.097.18.145.02-.095.127-.012.148-.108-.178-.224-.03.032-.191-.183l.003.092c-.072-.142-.062.012-.18-.108-.007-.063.14-.015.218-.018-.093-.086-.053.037-.163-.097l.057.014c-.032-.02-.069-.051-.078-.036-.08-.088.018-.03.038-.047.05.043.118.107.179.175a.247.247 0 0 1-.029-.036c.171.083.132-.08.27-.016-.032-.02-.036-.032-.057-.054.017-.03.164.06.23.06-.053-.08-.215-.18-.128-.196.085.063.197.21.235.164 0 0-.098-.02-.134-.092"/>
            <path fill="#899FEF" d="M292.005 86.12c.01 0 .02.007.027.003l.034.061-.078-.05.017-.013zM286.22 95.23l-.004-.007c.01.009.019.017.035.027a1.285 1.285 0 0 0-.03-.02M291.591 88.283l-.057-.047.064.024zM286.413 96.01a.232.232 0 0 1 .064.044.32.32 0 0 1-.064-.044M286.337 96.279l.068.114a.378.378 0 0 1-.068-.114M286.394 96.521l-.122-.034-.001-.002.123.036zM287.883 93.51a.031.031 0 0 1 .02-.009c.07-.008.037.006-.02.01M287.128 94.25c.058.003.114.006.155 0 .003.044-.004.073-.155 0M288.584 92.622l-.004-.003c.003-.003.005-.008.007-.012l-.003.015z"/>
            <path fill="#899FEF" d="M287.241 94.206c.036.061.011.084-.038.093-.004-.037-.015-.084.038-.093M286.124 97.393l.005.024c-.018-.006-.034-.009-.046-.011l.041-.013z"/>
            <path fill="#899FEF" d="M286.105 97.4l-.041.013c.004-.01.009-.019.04-.013M286.023 97.432l.087-.027c-.005.017-.003.04-.087.027M286.129 97.108l.104.026a.76.76 0 0 1-.104-.026"/>
            <path fill="#899FEF" d="M286.198 97.032c.01.049.183.173.1.21l-.082-.021c.16.022-.203-.206-.018-.189M285.865 96.5l.031.178c-.099-.063-.232-.148-.28-.088-.26-.301.227.122.249-.09M285.806 96.288c-.076.063-.156-.057-.217-.075.115-.016.143-.02.217.075M286.456 94.77l-.248-.104c.063-.042.095.043.248.104M287.11 94.702l.125.126-.235-.078zM286.345 94.173l-.047.009.135-.057zM287.716 91.712l.272.19c-.073.006-.395-.18-.272-.19M288.54 90.885c-.124-.114-.173-.233-.013-.18-.013.06.064.179.012.18M290.454 87.748l-.118-.029.132-.018zM290.878 75.276c-.092 0-.293-.036-.25-.07l.347.023-.097.047z"/>
            <path fill="#899FEF" d="M290.453 75.087c.109-.022.299-.038.5.031-.214.004-.127.032-.38.029-.028.032.066.081.148.092-.058.001.044.07-.094.06-.168-.087-.172-.148-.028-.185-.047-.024-.106-.022-.146-.027M290.213 73.383l.043.02c-.023-.005-.036-.012-.043-.02M290.035 72.36c-.005.018-.038.03-.07.036.02-.02.04-.035.07-.036M289.798 72.213c.012.006.018.012.027.018-.033-.003-.052-.008-.027-.018"/>
            <path fill="#899FEF" d="M290.274 73.41l-.115-.05c.112-.013.087.024.115.05M290.915 74.878a.261.261 0 0 1-.094.027.27.27 0 0 0 .04-.03l.054.003M290.181 73.845v.017l-.141.02.141-.037zM290.09 74.205c-.014-.016.28-.022.41-.029-.122.01-.18.022-.202.037-.056 0-.123-.002-.209-.008M290.333 74.747l-.042.018.042-.018M290.126 73.6h-.105a.919.919 0 0 1 .105 0M288.367 63.694c-.019.008-.031.014-.048.02.026-.015.044-.025.048-.02M287.629 63.579l-.01.017-.15.07zM289.574 71.927l.006.002c-.03.023-.026.012-.006-.002M288.956 69.114c.227-.005.243-.21.5-.189-.094.024-.343.227-.5.19M290.847 74.883a.058.058 0 0 0 .006-.033c.008.016.006.026-.006.033M289.24 68.925h.002l.03.002-.032-.002M289.498 71.189c.052-.008.092-.01.13-.012a.736.736 0 0 1-.13.012M289.83 71.7l-.044-.021c.029.006.04.013.044.02M289.654 70.877c-.025-.01-.066-.007-.032-.037l.036-.001c-.037.016-.054.03-.004.038M289.558 70.563l.06-.002-.01.023-.05-.02zM288.776 64.622a2.805 2.805 0 0 0-.258.07c.199-.069.232-.187.258-.07"/>
            <path fill="#899FEF" d="M290.787 74.874c.074.003.112 0 .128-.009-.004.008-.01.015-.017.022a.546.546 0 0 1-.111-.013M290.73 70.647l-.068-.093a.158.158 0 0 1 .069.093M289.4 66.711l.026-.034c.01.006.004.017-.025.034M290.76 70.427a.764.764 0 0 1-.214-.011c.022-.01.039-.019.072-.03l.141.04zM288.516 64.63l.003-.002-.003.001z"/>
            <path fill="#899FEF" d="M287.84 65.6l-.015.008a.073.073 0 0 0-.007.029c-.027.008-.054.013-.041-.007a.923.923 0 0 1 .063-.03m.8-.125c-.006-.008.039-.03.085-.043.004.014.01.027.02.036-.044 0-.077-.01-.105.007m.076-.12v.024l-.002.001.002-.025m-.157-1.073c.05-.071-.037-.002-.163.004.128-.078-.066-.023.156-.119-.154.047-.097.028-.215.045.125-.038.1-.1.246-.158-.17.057-.186.129-.372.164.1-.069.123-.13.3-.208-.048-.002-.117.017-.147-.004.013 0-.02.02-.036.03.1-.101-.052-.126.152-.245-.253.118-.077-.096-.301.044 0-.025.095-.104.14-.132-.2.087-.073-.031-.202-.004.108-.06.054-.082.11-.133a.27.27 0 0 1-.109.06c.071-.06-.004-.02-.11-.002.047-.061.156-.06.24-.12-.058-.012-.128.05-.213.08l.182-.133a.399.399 0 0 0-.121.029c.052-.04.13-.092.024-.073l.011.042-.109.03.109-.104c-.177-.003-.383.114-.591.212l-.026.043c-.071.03-.12.03-.13.02a.625.625 0 0 0-.224.183c.047.07.253-.091.327-.06l-.093.12.072-.029c.053-.01-.023.03-.04.04.105-.05.06.042.088.063l-.096.029c-.187.17.285.025.195.136l-.14.11.14-.049c-.07.06-.176.109-.11.13.304.048.071.329.285.416-.03.01-.041.009-.066.009.4-.008-.271.347.045.358l.048-.029c-.004.072.05-.028.143-.015-.167.076-.102.13-.15.189.032-.02.024-.03.044-.05.041-.008.143-.045.119-.015-.228.133-.171.207-.22.296.114-.036.232-.02.424-.062l-.198.108c.08-.005.032.033-.028.074a.322.322 0 0 1-.01-.053l-.012.005c.007-.005.008-.009.01-.013 0-.016.004-.025.015-.025-.117.016-.086.034-.216.083.012.018-.017.076.083.044.007.01.024.013.048.018-.017.016-.024.028-.01.033l.012-.01.043-.01c.07.018-.103.148-.18.214.152-.094.188-.062.307-.107-.008.008-.03-.03-.053-.079a.372.372 0 0 0 .08-.022c.143-.004-.083.116.028.146a.235.235 0 0 1 .081-.04c.042.009-.045.065-.114.097.118-.038.22-.022.178.022-.088.057-.134.07-.11.104l.077-.047c.085.019-.108.081-.027.093-.038-.003.048-.036.069-.031-.028.063-.073.081-.225.175l.126-.053c-.062.067-.192.2-.017.136-.273.087-.109.138-.091.17.003-.014.059-.037.087-.048-.152.137.047.148.07.222l.2-.058c.007.041-.377.192-.354.23l.088-.049c-.004.086.023.11.078.158l.131-.048c-.054.044-.043.07-.097.114.338-.063-.1.253.29.22l-.244.09c.016.033-.018.094.172.047l-.006-.007c.187-.068.016.034.065.04a.37.37 0 0 1-.175.081c.156.05.072.23.315.212-.05.12-.224.254-.165.344l.029-.01c.045.022.134.068.341 0-.024.088-.296.226-.176.282l.073-.044c.048.009-.04.076-.062.092.006.006.046-.012.075-.023.077-.002-.031.046-.046.069l.068-.029c.164.024-.084.22-.022.297.016-.023.098-.039.133-.042-.22.107-.134.189-.177.242l.084-.05c-.13.118.264-.012.132.106l-.146-.001c.048.017.011.055-.094.08.087.01.178-.05.216-.006.066-.017.033-.05.123-.058l.194.02c.02-.004.027.003.015.033-.291.08.001.063-.29.11.006.108.222.137.112.262.292-.045.059.169.42.057.017.049-.044.109-.183.18-.032-.001.01-.027.026-.042-.089.039-.087.102-.08.126.075-.055.131-.127.263-.19-.023.054-.141.154-.18.191l.192-.04c-.128.075.16-.01-.014.079l-.059.008c.033.065-.154.117-.16.187l.074-.023c.036.014-.132.094.044.07l-.004-.044c.133-.03.2-.014.27-.017-.024.054-.212.073-.224.1.126-.023.067-.015.184-.063-.03.062-.066.143-.216.22.02-.003.047-.013.047-.013.035.046-.177.15-.064.154l.016-.015c.192-.004-.145.15.168.081.063.005-.023-.042.138-.048.114.037-.251.106-.15.138-.012-.005.008-.007.036-.017a.386.386 0 0 1-.036.152c.268-.008-.023.178.289.17-.11.004-.118.043-.165.054 0 0 .027-.009.047-.01.014.02-.085.046-.125.064.094-.003-.084.084-.022.082-.066.015-.045.029-.04.049.066-.057.139-.045.238-.087.045.053-.275.134-.21.184l.132.007c-.189.049-.1.09-.17.103.06-.002.099.006.194-.017-.041.035.064.051-.047.086l-.055-.014c.088.061-.176.164-.036.197l.285-.06c.126.015-.141.105.04.104-.1.007-.071-.001-.16.043-.023-.011.046-.054.038-.078l-.156.086.064-.098c-.106.058-.078.05-.196.059-.082.068.148.026.047.096.043.01.142-.03.205-.021-.093.062.223.04.078.1.031.005.005-.018.072-.03-.02.034-.005.052-.09.076l-.036-.018c.012.02-.104.045-.029.072-.061.035-.2.075-.208.05-.016.014.066.021.15-.003.015.06-.3.086-.154.12a.078.078 0 0 1 .04-.014c.022.011.024.023.008.037.016-.057.233-.026.17-.078.155-.021.04.041.102.05-.099.05-.22.043-.292.072.048-.01.05.003.073.014l-.118.007c.002.012.005.024-.02.044l.042-.033c.025.023.216.032.113.1.044-.022.134-.063.199-.041-.065.065.05.004.143.02-.017.056-.205.043-.12.108.001.008-.068.012-.101.008.065.044-.012.086.08.123-.034-.017-.076-.028-.127.01.093-.027.096.028.158.04l-.057.013c.065.006.088-.014.107-.03-.02.003-.04.001-.036-.01.043-.031.266-.057.294-.02-.048.052-.204.068-.263.07.07.048-.257.093-.158.133.002.012.242.02.27.058-.13.039-.107-.036-.217.003.343.02-.18.162.024.222l.162-.032c.013.02.026.038.01.063l-.092-.02c-.035.025.002.069.124.039-.127.06-.049.06-.003.099-.017-.044-.022.002.059-.04.085.038.03.048-.003.084.058-.011.148-.003.15.01-.102.042-.074.092-.125.14l.049-.004c-.055.078.18.137.042.222l-.006.005-.01-.005c-.158-.013-.104.065-.165.091.04.002.107 0 .11.012-.146.011-.073.033-.14.048.053.022.174-.015.172.029-.011.017-.088.024-.143.026.074.004.132.027.15.049.038-.01-.012-.02-.003-.025.077-.008.05.01.147.003.012.02-.135.016-.084.039l.114-.03c.03.008-.018.024-.027.03a.768.768 0 0 1 .213-.024c-.083.065-.31.029-.436.04.092.05-.06.1-.066.142l.136-.013c-.02.021-.05.032-.109.042v.032a.535.535 0 0 1 .2-.033c-.038.036-.002.082-.183.096l.03-.003c.066.044.106.139.166.135-.058.05.048.112-.132.114-.042.028.234.077.01.096.119.036.047.002.18-.007.12.037-.182.067.077.084-.08.04-.054-.01-.168.001.242.014.038.076.17.119-.098.013-.058-.02-.163.006.06 0 .07.015.075.023l-.151.002.368.056c-.181.05-.257-.025-.332.047l.012-.003c.154.03-.12.046-.007.108-.028-.02.073-.002.116-.005l-.063.026a.068.068 0 0 1 .035.002c.111.036-.063.018.036.059.032-.02.146-.004.199.011l-.174.03h.206c.013.05-.319.081-.04.135l.033-.02c.048.008.196.038.09.058-.025.007-.145-.001-.138-.013l.045.028c.133.005.176-.05.217-.083-.056.007-.102.03-.184.013.046-.028.138-.05.185-.078-.055.008-.141.008-.195.009-.068-.042.093-.018.108-.044-.053-.015-.088-.024-.13-.022.057-.027.072-.053.004-.093 0 0-.1.031-.176.004.086-.056.25-.058.348-.123.23-.071-.124-.163.041-.213.061-.002.107.045.144.009-.12.003-.077-.024-.126-.027.176-.036-.04-.06.08-.085-.042.006-.09-.018-.131-.033-.15.002-.06-.044-.273.01.224-.056-.058-.1.285-.145l.043.015-.072-.059.004.003c-.025-.026.014-.03-.142-.062-.036.015-.036.036-.073.05-.132-.028.11-.065.116-.1-.108.004-.037.036-.169.029-.018-.024.061-.046.091-.07l-.06.005c-.138-.057.295-.032.092-.07.035 0 .073-.008.108-.006-.064-.015-.172-.049-.247-.009 0-.02.052-.046.12-.06.088.015.043.021.158.024l.06-.09c-.001-.01-.059.01-.06.022-.321-.083.27-.222-.128-.31.099.006.085-.014.152-.03-.035-.035-.015-.092-.078-.121l-.066.016c.073-.093.173-.164.125-.217a.476.476 0 0 0-.114.022c.118-.055-.276-.066-.017-.104l.022.013c-.052-.079.127-.192.15-.284-.156-.002-.01.052-.196.056-.068-.052.058-.13-.002-.188-.018.013-.037.013-.046.02-.11-.05.156-.014.125-.065-.077.013-.096.013-.139 0l.122-.032a.798.798 0 0 0-.153.027c.16-.047.037-.103.186-.144-.04 0-.18.035-.24.036-.05-.022.008-.05.063-.078-.111-.005-.103-.056-.12-.043-.059-.043.085-.02.173-.075l.075.031.023-.078-.07.04c-.065-.024.062-.079.052-.118l.092.004.047-.053c-.183.025-.05-.051-.257.008-.104-.067.124-.16.126-.239.003.013-.036.015-.065.023-.047-.037.042-.08.132-.124-.056.016-.073.03-.12.039-.012-.052.098-.051.142-.119-.073.03-.113.032-.134.02a.288.288 0 0 0 .129-.046c-.354.11-.158-.037-.439.044.076-.017.215-.135.364-.137l-.024.02c.1-.017.057-.03.06-.048a.149.149 0 0 1-.055.029c.102-.104-.026-.167.045-.276-.036.015-.093.065-.128.048-.071-.08.105-.17.175-.28-.23.044-.011.105-.229.154.031-.106.09-.221.185-.355-.342.037.115-.135-.16-.142.113-.02.146-.062.142-.099-.088.033-.1-.004-.163.022.094-.055.114-.155-.102-.1.208-.058-.027-.064.115-.125-.088-.02.023-.095-.053-.129.138-.015.051-.064.102-.096-.007.007-.024.023-.043.025-.118.013.086-.082.012-.093-.052-.001-.122.033-.137.015.093-.023.184-.126.062-.125.004.013-.044.025-.078.042.128-.172-.103-.261.052-.445l-.151.066c-.225-.029.244-.124.203-.184-.128-.16-.406-.283-.354-.486.043-.026.059-.01.125-.026-.024-.01-.156.024-.08-.02l.087-.02c-.252-.014.088-.278-.286-.231.111-.116-.137-.1.037-.253-.084-.006-.135.078-.168.045l.105-.125-.01.008c.225-.16-.35-.13-.2-.288l-.012.008c-.057.02-.134.022-.12-.001.04-.019.065-.014.117-.02.07-.123.068-.144.065-.223-.077.059-.085-.005-.206.03.073-.044.129-.029.181-.092-.007-.065-.13-.086-.189-.122.1-.055.062-.072.193-.117-.015-.07.025-.126-.004-.209l-.046.013c.157-.077-.108-.044-.018-.091-.058.021-.079.038-.125.051l.04-.055c-.043.034-.196.097-.224.072.105-.071.082-.018.171-.065l-.156.041c.009-.03.179-.095.235-.08-.03-.083.015-.19-.035-.256l-.096.042c.023-.054.003-.11-.092-.103.029-.012.079-.04.113-.045.118-.095-.165.051-.037-.053-.032.026-.046.05-.103.072l.087-.141c-.075.024-.261.021-.21-.043.04-.016.1-.024.112-.016l.028-.04-.18.04.137-.092-.143.05c.018-.039.198-.115.177-.134-.122-.054-.165-.02-.323-.033.272-.104-.045-.094.147-.18-.236-.008-.153-.172-.25-.257l-.022.017c-.144.001.188-.128.114-.157l-.035.027c-.17-.01-.078-.17.014-.273-.036.028-.125.054-.124.031.048-.036.198-.055.133-.07-.023.018-.085.034-.09.027l.124-.085c-.127-.052-.262-.118-.218-.238-.054.001-.099.032-.144.054.002-.083.087-.197.087-.271l-.16.053c-.012-.031.232-.112.077-.1-.025 0 0 .032-.065.07-.144-.017.138-.096.097-.15l-.17.084c-.123-.005.072-.089.17-.147.182-.146-.36.087-.238-.062.082-.049.13-.046.211-.094-.07-.045.052-.102-.017-.147-.276.071.012.032-.248.093l.078.024c-.154.014-.02.051-.179.107-.057-.013.057-.112.092-.172-.117.046.006.051-.161.096l.04-.04c-.033.02-.077.039-.069.05-.114.036-.016-.022-.02-.042.06-.026.147-.06.234-.087a.357.357 0 0 1-.044.012c.153-.108-.002-.124.118-.213-.032.02-.044.019-.073.028-.016-.021.129-.109.16-.16-.093.018-.254.115-.227.044.093-.049.271-.094.25-.136 0 0-.064.07-.14.078"/>
            <path fill="#899FEF" d="M287.937 65.555c.005-.007.015-.013.016-.02l.069-.007-.083.044-.002-.017zM290.24 73.396l-.007-.004a.22.22 0 0 0 .043.005l-.036-.001M289.468 66.58l-.07.025.056-.038zM290.739 73.871a.28.28 0 0 1 .075.012.41.41 0 0 1-.075-.012M290.775 74.095l.106.067a.39.39 0 0 1-.106-.067M290.915 74.268l-.126.006h-.002l.128-.006zM290.721 71.545c0-.005.004-.01.01-.017.05-.043.032-.016-.01.017M290.535 72.414a.87.87 0 0 0 .13-.075c.026.027.036.05-.13.075M290.702 70.608l-.005.001-.002-.011z"/>
            <path fill="#899FEF" d="M290.597 72.303c.064.02.055.048.018.077-.023-.021-.058-.046-.018-.077M290.884 75.037l.01.02-.047-.004.037-.016zM290.866 75.044l-.036.016c.001-.009.004-.017.036-.016"/>
            <path fill="#899FEF" d="M290.794 75.085l.077-.033c0 .014.007.034-.077.033M290.82 74.796l.107.003a.998.998 0 0 1-.107-.003"/>
            <path fill="#899FEF" d="M290.865 74.726c.022.038.221.108.15.154l-.085-.002c.16-.012-.247-.13-.065-.152M290.411 74.414l.076.118c-.112-.025-.263-.055-.295-.005-.328-.153.252.038.22-.113M290.282 74.26c-.051.062-.165-.002-.23 0 .103-.038.13-.047.23 0M290.229 73.02l-.267.035c.034-.052.104-.012.267-.036M290.749 72.702l.171.029-.242.054zM289.82 72.715l-.034.026.083-.092zM289.458 70.676l.325-.062c-.049.045-.409.139-.325.062M289.489 69.77c-.166.023-.283-.001-.136-.076.035.036.17.043.136.076M288.383 67.227l-.092.073.063-.099zM287.943 89.9c-.09.014-.295.019-.258-.011l.346-.038-.088.049z"/>
            <path fill="#899FEF" d="M287.492 89.856c.106-.041.294-.099.5-.099-.212.055-.122.054-.375.113-.024.03.075.04.157.03-.057.014.052.038-.087.065-.176-.022-.186-.064-.046-.125-.05-.005-.108.01-.149.016M287.049 88.64l.044.006c-.023 0-.037-.002-.044-.006M286.784 87.956c-.004.014-.035.03-.065.041a.134.134 0 0 1 .065-.041M286.546 87.899c.013.001.02.004.029.006-.033.005-.052.006-.029-.006"/>
            <path fill="#899FEF" d="M287.11 88.654l-.115-.014c.109-.031.086 0 .115.014M287.914 89.598a.322.322 0 0 1-.089.033.193.193 0 0 0 .034-.026l.055-.007M287.06 88.986l.002.012-.136.038.134-.05zM287.017 89.277c-.014-.01.277-.062.403-.087a.784.784 0 0 0-.197.058l-.206.029M287.32 89.592l-.038.019c.011-.006.025-.012.038-.02M286.977 88.82l-.104.019.104-.02M283.97 82.187l-.035.038c.018-.024.031-.04.036-.038M283.317 82.48l-.004.018-.108.126zM286.296 87.754h.006c-.026.024-.024.015-.006 0M285.416 86.052c.236-.1.226-.254.5-.348-.096.057-.33.308-.5.348M287.848 89.606c.002-.008.004-.017 0-.024.01.01.01.017 0 .024M285.664 85.71l.002-.002.028-.008c-.013.003-.02.006-.03.01M286.164 87.27c.048-.02.086-.033.122-.045a1.079 1.079 0 0 1-.122.045M286.522 87.528l-.045-.004c.029-.003.04 0 .045.004M286.273 86.994c-.025 0-.064.014-.035-.017l.034-.012c-.033.023-.047.038.001.029M286.155 86.797l.056-.02-.007.02h-.05zM284.512 82.746c-.068.05-.138.108-.207.167.156-.14.16-.243.207-.167"/>
            <path fill="#899FEF" d="M287.789 89.619a.42.42 0 0 0 .125-.026.063.063 0 0 1-.014.018.775.775 0 0 1-.111.008M287.268 86.516l-.074-.052a.102.102 0 0 1 .074.052M285.47 84.008l.016-.036c.01.001.007.012-.017.036M287.27 86.355a.867.867 0 0 1-.203.052l.064-.043.138-.009zM284.303 82.813l.003-.002-.003.002z"/>
            <path fill="#899FEF" d="M283.908 83.83l-.012.012a.056.056 0 0 0 0 .025c-.023.018-.045.033-.038.013l.05-.05m.67-.44c-.007-.003.028-.038.065-.068a.045.045 0 0 0 .024.018c-.037.02-.069.026-.09.05m.043-.12l.005.017-.002.002-.003-.02m-.352-.738c.028-.076-.032.016-.14.078.094-.118-.06.012.109-.161-.122.105-.078.065-.175.132.1-.086.064-.121.176-.231-.133.12-.13.181-.282.293.071-.098.077-.154.211-.294-.041.02-.096.066-.125.064.01-.006-.013.024-.024.039.062-.122-.073-.07.073-.255-.188.207-.087-.036-.245.173-.006-.018.057-.123.089-.164-.15.158-.069.01-.17.09.076-.095.025-.086.06-.151a.34.34 0 0 1-.077.096c.045-.08-.01-.014-.093.05.024-.068.117-.118.174-.204-.053.019-.097.098-.162.161l.122-.186a.52.52 0 0 0-.095.08c.034-.057.088-.133.003-.068l.02.027-.084.074.064-.131c-.151.08-.291.271-.441.445l-.011.045c-.053.057-.093.082-.102.08a.936.936 0 0 0-.148.242c.053.028.19-.19.258-.204l-.052.134.054-.057c.042-.032-.013.034-.024.049.076-.087.057.002.085.003l-.074.068c-.122.214.244-.117.191.007l-.095.147.109-.102c-.048.077-.127.163-.067.147.265-.105.125.208.323.174-.022.02-.033.025-.054.036.34-.187-.167.38.106.244l.036-.043c.01.054.036-.043.12-.075-.13.13-.063.14-.094.205.025-.028.015-.032.03-.056.033-.024.113-.097.098-.064-.17.2-.108.227-.134.314.092-.076.196-.117.354-.231l-.152.166c.068-.039.033.01-.011.067a.17.17 0 0 1-.019-.035l-.008.01c.005-.007.005-.01.006-.015-.002-.012 0-.02.008-.025-.097.063-.067.063-.171.155.014.008-.001.064.079-.004.007.006.023 0 .045-.007-.012.019-.017.031-.003.028l.009-.012.035-.026c.064-.018-.063.153-.118.234.115-.135.152-.127.247-.21-.006.008-.032-.01-.06-.036a.486.486 0 0 0 .065-.05c.123-.066-.05.12.051.094.009-.012.027-.036.063-.065.039-.011-.027.068-.082.12.097-.078.19-.11.16-.06-.067.079-.104.108-.077.123l.058-.067c.078-.023-.079.105-.006.079-.034.014.035-.047.054-.052-.014.059-.05.091-.167.225l.101-.093c-.043.076-.135.228.008.108-.225.179-.074.147-.053.163 0-.012.046-.052.069-.072-.11.163.066.088.099.132l.166-.126c.013.028-.3.296-.273.314l.07-.072c.01.064.038.07.093.082l.109-.088c-.04.054-.028.069-.069.123.289-.183-.05.225.289.045l-.203.163c.02.017 0 .075.161-.035l-.007-.002c.157-.124.02.017.065.003a.515.515 0 0 1-.143.128c.146-.027.1.135.314.029-.028.107-.165.271-.101.315l.024-.019c.043 0 .13-.001.306-.128-.01.074-.234.274-.118.27l.06-.06c.045-.01-.025.07-.042.09.007.002.04-.026.064-.044.07-.03-.021.044-.032.066l.058-.046c.153-.044-.042.188.021.222a.38.38 0 0 1 .115-.079c-.186.159-.099.186-.131.24l.07-.066c-.104.131.238-.102.132.03l-.133.051c.046-.004.017.036-.076.09.08-.022.157-.098.196-.079.058-.035.025-.048.105-.085l.18-.054c.017-.01.025-.007.019.019-.257.159.01.045-.252.181.02.074.224.02.14.148.265-.133.074.101.394-.1.021.03-.029.095-.149.192-.03.01.007-.023.02-.039-.078.058-.07.103-.06.118.062-.064.106-.135.22-.226-.014.048-.113.16-.144.2l.172-.092c-.109.097.148-.059-.004.062l-.053.025c.038.038-.13.136-.128.188l.065-.04c.035 0-.111.11.05.037l-.01-.03c.12-.066.185-.075.25-.099-.014.047-.188.12-.196.143.115-.057.061-.032.165-.104-.021.055-.044.124-.174.226.018-.008.042-.024.042-.024.04.022-.146.161-.04.129l.014-.015c.18-.063-.12.152.166.006.06-.015-.026-.023.124-.076.11-.007-.225.153-.127.146-.012 0 .007-.008.032-.023a.265.265 0 0 1-.02.121c.25-.084-.005.136.287.04-.103.035-.107.066-.15.087 0 0 .024-.014.043-.021.014.011-.076.058-.112.082.09-.028-.07.084-.011.065-.06.03-.04.033-.032.046.056-.059.127-.071.216-.13.05.026-.245.174-.178.191l.127-.033c-.174.088-.084.091-.15.121.059-.019.096-.024.183-.066-.034.036.068.018-.033.073l-.055.006c.092.02-.154.165-.018.15l.266-.119c.12-.02-.126.114.045.066-.093.031-.067.018-.148.073-.022-.002.04-.05.03-.067l-.142.104.054-.088c-.095.07-.07.056-.182.094-.072.07.143-.02.052.056.041-.004.133-.058.193-.068-.084.069.216-.028.082.053.03-.005.003-.015.067-.04-.018.03-.002.038-.08.077l-.037-.004c.013.011-.096.059-.022.059-.056.04-.186.103-.194.088-.015.014.064-.002.143-.04.02.04-.28.136-.136.122a.111.111 0 0 1 .036-.019c.024.002.027.01.013.023.01-.043.222-.075.156-.097.146-.053.043.02.104.011-.09.059-.207.084-.274.122.045-.018.049-.01.072-.008l-.113.034c.003.008.008.015-.015.035l.037-.033c.027.01.213-.03.12.041.042-.025.124-.076.19-.076-.057.062.048-.009.14-.02-.01.044-.194.079-.104.105.003.005-.064.024-.097.03.068.015-.006.063.086.068a.143.143 0 0 0-.121.037c.088-.042.093-.003.154-.009l-.054.023c.063-.01.084-.03.1-.046-.018.007-.036.01-.034.002.039-.033.252-.102.282-.08-.043.047-.192.094-.25.108.072.019-.242.124-.144.13.003.009.235-.038.265-.017-.123.055-.106-.003-.21.049.332-.059-.167.154.042.15l.155-.055c.014.01.03.02.017.042l-.092.005c-.031.025.01.047.126 0-.117.07-.04.054.01.072-.024-.028-.023.006.051-.041.088.01.036.028.008.06.055-.02.144-.032.147-.023-.094.05-.06.08-.104.124l.047-.012c-.048.065.183.064.054.152l-.005.004-.011-.002c-.154.02-.098.065-.157.096.04-.006.106-.02.109-.012-.142.034-.07.037-.134.06.052.005.17-.042.169-.01-.01.014-.084.032-.138.043.073-.01.134-.004.154.008.037-.013-.014-.011-.005-.017.075-.019.05-.002.145-.024.014.012-.132.036-.078.042l.108-.041c.03 0-.014.02-.022.026.025-.017.14-.04.206-.054-.073.061-.3.075-.424.104.097.02-.045.081-.046.112l.131-.033c-.017.019-.045.032-.101.049l.004.022a.737.737 0 0 1 .192-.057c-.031.031.01.058-.167.098l.029-.006c.07.019.123.08.182.067-.051.044.062.071-.116.101-.041.027.234.018.013.068.12.006.048-.006.179-.034.12.008-.177.077.08.048-.076.041-.054.001-.166.027.238-.027.044.05.183.059-.095.024-.06-.005-.16.03.059-.01.071 0 .077.004l-.149.024.372-.017c-.17.063-.257.023-.32.086l.012-.005c.156-.002-.112.051.01.078-.031-.01.071-.013.114-.022l-.059.028a.098.098 0 0 1 .036-.004c.114.01-.06.023.044.036a.559.559 0 0 1 .197-.022l-.166.049.204-.032c.02.033-.302.106-.019.101l.03-.019c.048-.002.199-.003.097.027-.023.009-.143.022-.138.012l.05.013c.13-.017.165-.062.2-.092-.054.013-.095.037-.18.037.041-.026.128-.056.17-.083-.052.014-.138.027-.19.036-.074-.02.089-.027.1-.047-.055-.003-.091-.004-.133.004.053-.028.064-.05-.01-.067 0 0-.094.038-.173.03.076-.053.236-.08.323-.14.218-.087-.15-.097.01-.159.06-.01.108.017.143-.016-.12.022-.079-.005-.126 0 .171-.054-.044-.036.073-.075-.041.011-.089.001-.131-.003-.148.025-.062-.022-.27.051.219-.077-.06-.064.27-.151l.045.003-.079-.03.004.001c-.028-.014.01-.024-.148-.02-.033.016-.03.031-.065.048-.134 0 .1-.065.102-.092-.107.021-.032.033-.164.05-.02-.015.054-.044.08-.066l-.057.014c-.144-.017.286-.073.08-.066.035-.006.072-.017.107-.022-.065 0-.176-.006-.245.036-.003-.015.045-.042.11-.063.09-.005.046.007.159-.01l.047-.075c-.002-.007-.056.017-.055.026-.328-.004.23-.206-.16-.202.097-.014.083-.026.146-.05-.035-.02-.02-.065-.083-.075l-.064.024c.065-.082.162-.155.107-.184a.63.63 0 0 0-.11.038c.11-.063-.278.007-.028-.072l.023.006c-.06-.047.1-.164.112-.237-.154.032-.004.04-.186.082-.072-.024.04-.106-.024-.136-.016.014-.035.018-.043.024-.11-.014.15-.042.116-.074a.318.318 0 0 1-.134.03l.116-.05c-.02.004-.112.034-.147.052.15-.068.029-.084.17-.147-.038.01-.172.065-.23.079-.049-.006.005-.04.056-.072-.108.022-.103-.018-.118-.005-.06-.019.08-.034.16-.093l.076.006.016-.064-.065.046c-.064-.003.054-.073.042-.1l.089-.018.04-.051c-.173.06-.054-.025-.247.065-.11-.024.1-.145.091-.203.005.01-.032.02-.06.032-.05-.015.031-.069.113-.122-.053.025-.067.04-.113.057-.016-.035.09-.06.124-.121-.067.04-.105.05-.128.047a.37.37 0 0 0 .119-.065c-.328.167-.157.012-.418.14.071-.03.194-.153.337-.192l-.02.022c.094-.037.05-.037.053-.051a.184.184 0 0 1-.051.035c.088-.104-.04-.12.018-.22-.033.02-.083.073-.117.068-.075-.04.084-.154.14-.258-.214.094 0 .084-.203.177.022-.089.062-.189.134-.313-.322.121.09-.132-.173-.061.106-.046.132-.087.123-.113-.08.05-.095.025-.152.062.083-.068.09-.15-.108-.047.19-.102-.031-.04.096-.128-.085.01.011-.078-.063-.082.127-.051.04-.064.085-.103a.102.102 0 0 1-.038.031c-.11.045.072-.087 0-.074-.048.014-.11.061-.126.052.085-.046.159-.151.043-.113.005.008-.038.032-.068.055.096-.167-.135-.161-.016-.347l-.132.097c-.214.049.212-.17.165-.203-.14-.082-.408-.089-.392-.256.035-.033.053-.026.112-.06-.024 0-.141.07-.077.01l.076-.043c-.234.075.04-.237-.3-.074.086-.126-.139-.029-.001-.204-.078.024-.113.105-.147.091l.078-.131-.009.01c.183-.201-.335.024-.225-.146l-.009.01c-.05.036-.12.065-.11.043.033-.029.057-.034.104-.058.043-.116.037-.132.022-.19-.06.073-.078.028-.183.1.06-.06.112-.07.15-.136-.018-.045-.132-.017-.19-.022.081-.079.044-.078.156-.16-.025-.048.003-.105-.037-.158l-.04.027c.13-.118-.103.007-.03-.063-.048.038-.064.06-.103.086l.026-.057c-.033.043-.16.148-.19.14.083-.093.071-.044.143-.114l-.133.09c.003-.024.145-.138.198-.15-.042-.05-.02-.147-.077-.177l-.08.069c.012-.05-.016-.083-.1-.041.024-.02.063-.06.093-.078.09-.118-.139.104-.042-.025-.024.032-.033.055-.08.094l.053-.14c-.061.047-.228.118-.194.05a.28.28 0 0 1 .098-.057l.018-.04-.152.1.105-.124-.119.095c.01-.037.157-.166.135-.172-.117.007-.15.05-.292.105.222-.188-.057-.052.096-.194-.21.09-.167-.065-.269-.09l-.015.023c-.126.06.142-.174.072-.166l-.026.035c-.15.063-.098-.096-.037-.212-.027.036-.1.093-.103.075.034-.047.162-.124.103-.108-.017.023-.069.061-.074.058l.091-.115c-.12.013-.252.022-.237-.087-.047.024-.08.067-.115.103-.015-.063.038-.186.023-.242l-.128.109c-.016-.018.18-.186.048-.108-.022.01.007.023-.043.08-.127.05.1-.133.054-.155l-.13.138c-.108.05.044-.099.117-.185.127-.19-.293.223-.219.058.06-.072.103-.092.163-.164-.07-.002.024-.099-.045-.102-.223.176.017.018-.194.18l.072-.017c-.13.08-.008.048-.133.16-.051.015.026-.109.045-.17-.092.087.014.036-.12.144l.027-.047c-.024.029-.058.062-.05.067-.09.078-.017-.01-.026-.022a3.816 3.816 0 0 1 .149-.142c.11-.149-.026-.093.058-.213-.024.03-.034.034-.057.054-.018-.009.087-.14.104-.192-.077.055-.195.201-.187.136.07-.08.213-.194.185-.216 0 0-.039.082-.103.122"/>
            <path fill="#899FEF" d="M283.981 83.773c.003-.007.01-.016.01-.02.022-.015.042-.026.058-.036l-.063.068-.005-.012zM287.077 88.646l-.008-.001.042-.005a.683.683 0 0 1-.034.006M285.507 83.888l-.059.047.044-.051zM287.616 88.9a.396.396 0 0 1 .076-.005.53.53 0 0 1-.076.004M287.681 89.051l.115.03a.456.456 0 0 1-.115-.03M287.836 89.165l-.125.025h-.001l.126-.025zM287.36 87.198c0-.004.002-.01.008-.015.043-.045.029-.021-.008.015M287.269 87.891c.047-.03.093-.06.12-.083.028.013.039.028-.12.083M287.238 86.494l-.005.002-.004-.007zM287.323 87.782c.062.002.056.024.023.054-.025-.011-.06-.022-.023-.054M287.91 89.712l.012.012-.046.005.033-.017zM287.893 89.72l-.033.017c0-.007.001-.013.033-.017M287.827 89.763l.07-.035c.003.01.013.023-.07.035M287.81 89.556l.106-.015-.106.015M287.842 89.495c.027.023.234.043.171.086l-.084.012c.156-.033-.264-.055-.087-.098M287.342 89.366l.093.072c-.114 0-.269.001-.291.042-.349-.058.255-.012.198-.114M287.21 89.261c-.049.052-.164.025-.227.038.1-.044.124-.055.227-.038M287.032 88.406l-.257.078c.026-.043.1-.029.257-.078M287.5 88.06l.17-.015-.23.089zM286.596 88.258l-.032.025.076-.083zM286.068 86.951l.3-.14c-.043.047-.373.22-.3.14M285.996 86.25c-.151.07-.261.09-.133-.012.035.015.162-.024.133.011M284.643 84.803l-.07.09.04-.097z"/>
            <path fill="#9CADEF" d="M298.632 64.22c15.572-20.317 33.782-30.041 33.964-30.137l-.345-.656c-.184.097-18.537 9.897-34.207 30.342l.588.45zM285.82 62.408l.713-.2c-6.954-24.801-20.354-40.718-20.488-40.876l-.564.48c.133.157 13.43 15.96 20.339 40.596M295.199 85.297c18.583-17.568 40.838-22.299 41.06-22.344l-.148-.726c-.225.046-22.686 4.82-41.421 22.532l.509.538zM281.923 83.397l.672-.31c-10.816-23.404-29.896-36.18-30.087-36.306l-.408.618c.19.125 19.099 12.793 29.823 35.998M292.59 54.35l.73.126C298.282 25.689 309.566.826 309.68.578l-.674-.308c-.114.249-11.437 25.194-16.416 54.08"/>
            <g>
                <use fill="#000" filter="url(#a)" xlink:href="#b"/>
                <use fill="#FFF" xlink:href="#b"/>
            </g>
            <path fill="#BCC5FA" d="M149.443 232.763a1.326 1.326 0 1 1 2.64.247 1.326 1.326 0 0 1-2.64-.247M279.22 235.736l-3.25-2.85-1.38 4.098zM243.096 113.11s3.355 2.088 5.995 2.335l1.924-1.595s-7.755-2.5-7.59-4.26l-.33 3.52M244.314 132.858s-1.323 3.016-1.212 5.223l1.546 1.397s1.137-6.694 2.608-6.768l-2.942.148M211.638 111.421s-1.35 1.676-2.662 2.277l-1.275-.474s3.536-2.678 3.135-3.552l.802 1.75M177.19 105.024s-1.348 1.676-2.66 2.277l-1.276-.474s3.536-2.678 3.135-3.553l.802 1.75M204.727 127.289s.206 1.48-.113 2.43l-.847.42s.326-3.064-.307-3.277l1.267.427M234.35 84.708s.206 1.48-.113 2.43l-.847.42s.327-3.063-.307-3.276c-.633-.214 1.267.426 1.267.426M128.807 133.92a1.325 1.325 0 1 1 2.64.246 1.325 1.325 0 0 1-2.64-.246M254.608 84.975a1.325 1.325 0 1 1 2.64.246 1.325 1.325 0 0 1-2.64-.246M167.825 129.575a1.326 1.326 0 1 1 2.64.247 1.326 1.326 0 0 1-2.64-.247M296.306 132.594a1.326 1.326 0 1 1 2.64.247 1.326 1.326 0 0 1-2.64-.247M216.962 151.57a1.326 1.326 0 1 1 2.64.246 1.326 1.326 0 0 1-2.64-.247M198.43 129.77l-2.27-4.205-3.01 3.713zM125.42 109.404l-2.27-4.206-3.01 3.713zM274.865 145.953l1.064-2.14-2.385-.158zM202.58 87.74l-3.252-2.85-1.38 4.097zM233.803 140.125l-.706-.852.354.426-.36-.42c.01-.009.242-.22.216-.529-.034-.397-.468-.875-1.222-1.344-.7-.436-1.44-.655-2.093-.847-.902-.267-1.753-.518-2.114-1.297-.307-.661-.183-1.549.403-2.879.196-.445.39-.873.577-1.284 1.519-3.338 2.117-4.86.376-5.942-.686-.427-1.499-.767-2.285-1.094-1.509-.63-2.812-1.172-3.16-2.26-.18-.564-.06-1.19.358-1.861l.94.584c-.36.578-.273.85-.244.94.192.6 1.381 1.096 2.532 1.576.827.344 1.682.7 2.444 1.175 2.638 1.642 1.494 4.157.047 7.34-.185.407-.378.831-.573 1.272-.533 1.211-.518 1.739-.412 1.968.15.325.713.49 1.425.7.684.203 1.536.454 2.364.97 1.102.686 1.688 1.433 1.742 2.219.058.86-.54 1.382-.609 1.439M145.254 95.693c-.08 0-.155-.008-.22-.021l.227-1.083-.02-.003c.001 0 .06.006.088-.022.056-.056.135-.278.079-.759-.047-.41-.191-.765-.33-1.109-.204-.504-.416-1.025-.156-1.543.213-.425.681-.712 1.52-.933.257-.067.505-.13.743-.19 2.052-.513 2.555-.751 2.46-1.572-.048-.415-.176-.865-.3-1.3-.249-.875-.484-1.702-.075-2.314.222-.332.59-.53 1.093-.587l.127 1.099c-.185.02-.276.067-.3.103-.125.187.082.915.22 1.397.13.455.276.97.334 1.474.22 1.896-1.486 2.323-3.29 2.774-.235.059-.478.12-.73.186-.72.19-.81.351-.813.358-.035.071.113.437.192.633.151.373.34.837.404 1.397.091.785-.055 1.359-.434 1.705-.253.23-.565.31-.819.31M139.188 114.252a4.06 4.06 0 0 0 .924 2.989 4.058 4.058 0 0 0 2.766 1.46 4.058 4.058 0 0 0 2.988-.923 4.06 4.06 0 0 0 1.46-2.766 4.06 4.06 0 0 0-.923-2.988 4.089 4.089 0 0 0-7.215 2.229m4.079 5.573a5.158 5.158 0 0 1-4.007-1.879 5.16 5.16 0 0 1-1.173-3.798 5.2 5.2 0 0 1 5.653-4.687 5.16 5.16 0 0 1 3.515 1.855 5.16 5.16 0 0 1 1.173 3.798 5.16 5.16 0 0 1-1.856 3.515 5.154 5.154 0 0 1-3.305 1.196M158.585 128.712l-.506-.222.506.222zm.506.223l-1.012-.446c.223-.509.759-2.13.315-2.884-.093-.159-.28-.375-.81-.425-.933-.087-1.557-.438-1.857-1.042-.53-1.07.272-2.414.365-2.564l.94.585c-.19.308-.517 1.08-.313 1.488.147.296.607.398.968.431.956.09 1.431.576 1.661.967.81 1.377-.145 3.637-.257 3.89zM190.493 85.652a.767.767 0 0 0-.768.7.773.773 0 1 0 .768-.7m.003 2.65a1.867 1.867 0 0 1-1.448-.68 1.866 1.866 0 0 1-.424-1.373c.047-.5.285-.95.672-1.271a1.88 1.88 0 0 1 3.07 1.621 1.882 1.882 0 0 1-1.87 1.704M132.04 152.946a2.993 2.993 0 0 0-.643-5.079c-.746-.356-2.566.233-3.293.473-.27-.717-.957-2.501-1.703-2.857a2.988 2.988 0 0 0-4.353 2.693c.027 1.23 2.611 7.38 2.611 7.38s6.412-1.852 7.381-2.61M283.432 120.183a2.993 2.993 0 0 0-4.247-2.857c-.76.327-1.513 2.085-1.81 2.79-.718-.267-2.515-.925-3.274-.597a2.988 2.988 0 0 0-.836 5.05c.944.789 7.276 2.89 7.276 2.89s2.824-6.047 2.891-7.276"/>
        </g>
    </g>
</svg>
